%TF.GenerationSoftware,KiCad,Pcbnew,9.0.2*%
%TF.CreationDate,2025-09-11T23:54:02+05:30*%
%TF.ProjectId,DC_BUCK_CONVERTER,44435f42-5543-44b5-9f43-4f4e56455254,rev?*%
%TF.SameCoordinates,Original*%
%TF.FileFunction,Soldermask,Top*%
%TF.FilePolarity,Negative*%
%FSLAX46Y46*%
G04 Gerber Fmt 4.6, Leading zero omitted, Abs format (unit mm)*
G04 Created by KiCad (PCBNEW 9.0.2) date 2025-09-11 23:54:02*
%MOMM*%
%LPD*%
G01*
G04 APERTURE LIST*
G04 Aperture macros list*
%AMRoundRect*
0 Rectangle with rounded corners*
0 $1 Rounding radius*
0 $2 $3 $4 $5 $6 $7 $8 $9 X,Y pos of 4 corners*
0 Add a 4 corners polygon primitive as box body*
4,1,4,$2,$3,$4,$5,$6,$7,$8,$9,$2,$3,0*
0 Add four circle primitives for the rounded corners*
1,1,$1+$1,$2,$3*
1,1,$1+$1,$4,$5*
1,1,$1+$1,$6,$7*
1,1,$1+$1,$8,$9*
0 Add four rect primitives between the rounded corners*
20,1,$1+$1,$2,$3,$4,$5,0*
20,1,$1+$1,$4,$5,$6,$7,0*
20,1,$1+$1,$6,$7,$8,$9,0*
20,1,$1+$1,$8,$9,$2,$3,0*%
G04 Aperture macros list end*
%ADD10C,0.010000*%
%ADD11RoundRect,0.200000X-0.200000X-0.275000X0.200000X-0.275000X0.200000X0.275000X-0.200000X0.275000X0*%
%ADD12R,2.200000X1.500000*%
%ADD13RoundRect,0.249999X0.450001X1.450001X-0.450001X1.450001X-0.450001X-1.450001X0.450001X-1.450001X0*%
%ADD14R,1.700000X1.700000*%
%ADD15C,1.700000*%
%ADD16RoundRect,0.225000X-0.250000X0.225000X-0.250000X-0.225000X0.250000X-0.225000X0.250000X0.225000X0*%
%ADD17RoundRect,0.249999X-0.450001X-1.450001X0.450001X-1.450001X0.450001X1.450001X-0.450001X1.450001X0*%
G04 APERTURE END LIST*
D10*
%TO.C,U1*%
X156078000Y-80611000D02*
X156084000Y-80611000D01*
X156090000Y-80613000D01*
X156096000Y-80614000D01*
X156102000Y-80616000D01*
X156108000Y-80618000D01*
X156114000Y-80620000D01*
X156119000Y-80623000D01*
X156125000Y-80626000D01*
X156130000Y-80629000D01*
X156136000Y-80633000D01*
X156141000Y-80637000D01*
X156145000Y-80641000D01*
X156150000Y-80645000D01*
X156154000Y-80650000D01*
X156158000Y-80654000D01*
X156162000Y-80659000D01*
X156166000Y-80665000D01*
X156169000Y-80670000D01*
X156172000Y-80676000D01*
X156175000Y-80681000D01*
X156177000Y-80687000D01*
X156179000Y-80693000D01*
X156181000Y-80699000D01*
X156182000Y-80705000D01*
X156184000Y-80711000D01*
X156184000Y-80717000D01*
X156185000Y-80724000D01*
X156185000Y-80730000D01*
X156185000Y-80870000D01*
X156185000Y-80876000D01*
X156184000Y-80883000D01*
X156184000Y-80889000D01*
X156182000Y-80895000D01*
X156181000Y-80901000D01*
X156179000Y-80907000D01*
X156177000Y-80913000D01*
X156175000Y-80919000D01*
X156172000Y-80924000D01*
X156169000Y-80930000D01*
X156166000Y-80935000D01*
X156162000Y-80941000D01*
X156158000Y-80946000D01*
X156154000Y-80950000D01*
X156150000Y-80955000D01*
X156145000Y-80959000D01*
X156141000Y-80963000D01*
X156136000Y-80967000D01*
X156130000Y-80971000D01*
X156125000Y-80974000D01*
X156119000Y-80977000D01*
X156114000Y-80980000D01*
X156108000Y-80982000D01*
X156102000Y-80984000D01*
X156096000Y-80986000D01*
X156090000Y-80987000D01*
X156084000Y-80989000D01*
X156078000Y-80989000D01*
X156071000Y-80990000D01*
X156065000Y-80990000D01*
X155555000Y-80990000D01*
X155549000Y-80990000D01*
X155542000Y-80989000D01*
X155536000Y-80989000D01*
X155530000Y-80987000D01*
X155524000Y-80986000D01*
X155518000Y-80984000D01*
X155512000Y-80982000D01*
X155506000Y-80980000D01*
X155501000Y-80977000D01*
X155495000Y-80974000D01*
X155490000Y-80971000D01*
X155484000Y-80967000D01*
X155479000Y-80963000D01*
X155475000Y-80959000D01*
X155470000Y-80955000D01*
X155466000Y-80950000D01*
X155462000Y-80946000D01*
X155458000Y-80941000D01*
X155454000Y-80935000D01*
X155451000Y-80930000D01*
X155448000Y-80924000D01*
X155445000Y-80919000D01*
X155443000Y-80913000D01*
X155441000Y-80907000D01*
X155439000Y-80901000D01*
X155438000Y-80895000D01*
X155436000Y-80889000D01*
X155436000Y-80883000D01*
X155435000Y-80876000D01*
X155435000Y-80870000D01*
X155435000Y-80730000D01*
X155435000Y-80724000D01*
X155436000Y-80717000D01*
X155436000Y-80711000D01*
X155438000Y-80705000D01*
X155439000Y-80699000D01*
X155441000Y-80693000D01*
X155443000Y-80687000D01*
X155445000Y-80681000D01*
X155448000Y-80676000D01*
X155451000Y-80670000D01*
X155454000Y-80665000D01*
X155458000Y-80659000D01*
X155462000Y-80654000D01*
X155466000Y-80650000D01*
X155470000Y-80645000D01*
X155475000Y-80641000D01*
X155479000Y-80637000D01*
X155484000Y-80633000D01*
X155490000Y-80629000D01*
X155495000Y-80626000D01*
X155501000Y-80623000D01*
X155506000Y-80620000D01*
X155512000Y-80618000D01*
X155518000Y-80616000D01*
X155524000Y-80614000D01*
X155530000Y-80613000D01*
X155536000Y-80611000D01*
X155542000Y-80611000D01*
X155549000Y-80610000D01*
X155555000Y-80610000D01*
X156065000Y-80610000D01*
X156071000Y-80610000D01*
X156078000Y-80611000D01*
G36*
X156078000Y-80611000D02*
G01*
X156084000Y-80611000D01*
X156090000Y-80613000D01*
X156096000Y-80614000D01*
X156102000Y-80616000D01*
X156108000Y-80618000D01*
X156114000Y-80620000D01*
X156119000Y-80623000D01*
X156125000Y-80626000D01*
X156130000Y-80629000D01*
X156136000Y-80633000D01*
X156141000Y-80637000D01*
X156145000Y-80641000D01*
X156150000Y-80645000D01*
X156154000Y-80650000D01*
X156158000Y-80654000D01*
X156162000Y-80659000D01*
X156166000Y-80665000D01*
X156169000Y-80670000D01*
X156172000Y-80676000D01*
X156175000Y-80681000D01*
X156177000Y-80687000D01*
X156179000Y-80693000D01*
X156181000Y-80699000D01*
X156182000Y-80705000D01*
X156184000Y-80711000D01*
X156184000Y-80717000D01*
X156185000Y-80724000D01*
X156185000Y-80730000D01*
X156185000Y-80870000D01*
X156185000Y-80876000D01*
X156184000Y-80883000D01*
X156184000Y-80889000D01*
X156182000Y-80895000D01*
X156181000Y-80901000D01*
X156179000Y-80907000D01*
X156177000Y-80913000D01*
X156175000Y-80919000D01*
X156172000Y-80924000D01*
X156169000Y-80930000D01*
X156166000Y-80935000D01*
X156162000Y-80941000D01*
X156158000Y-80946000D01*
X156154000Y-80950000D01*
X156150000Y-80955000D01*
X156145000Y-80959000D01*
X156141000Y-80963000D01*
X156136000Y-80967000D01*
X156130000Y-80971000D01*
X156125000Y-80974000D01*
X156119000Y-80977000D01*
X156114000Y-80980000D01*
X156108000Y-80982000D01*
X156102000Y-80984000D01*
X156096000Y-80986000D01*
X156090000Y-80987000D01*
X156084000Y-80989000D01*
X156078000Y-80989000D01*
X156071000Y-80990000D01*
X156065000Y-80990000D01*
X155555000Y-80990000D01*
X155549000Y-80990000D01*
X155542000Y-80989000D01*
X155536000Y-80989000D01*
X155530000Y-80987000D01*
X155524000Y-80986000D01*
X155518000Y-80984000D01*
X155512000Y-80982000D01*
X155506000Y-80980000D01*
X155501000Y-80977000D01*
X155495000Y-80974000D01*
X155490000Y-80971000D01*
X155484000Y-80967000D01*
X155479000Y-80963000D01*
X155475000Y-80959000D01*
X155470000Y-80955000D01*
X155466000Y-80950000D01*
X155462000Y-80946000D01*
X155458000Y-80941000D01*
X155454000Y-80935000D01*
X155451000Y-80930000D01*
X155448000Y-80924000D01*
X155445000Y-80919000D01*
X155443000Y-80913000D01*
X155441000Y-80907000D01*
X155439000Y-80901000D01*
X155438000Y-80895000D01*
X155436000Y-80889000D01*
X155436000Y-80883000D01*
X155435000Y-80876000D01*
X155435000Y-80870000D01*
X155435000Y-80730000D01*
X155435000Y-80724000D01*
X155436000Y-80717000D01*
X155436000Y-80711000D01*
X155438000Y-80705000D01*
X155439000Y-80699000D01*
X155441000Y-80693000D01*
X155443000Y-80687000D01*
X155445000Y-80681000D01*
X155448000Y-80676000D01*
X155451000Y-80670000D01*
X155454000Y-80665000D01*
X155458000Y-80659000D01*
X155462000Y-80654000D01*
X155466000Y-80650000D01*
X155470000Y-80645000D01*
X155475000Y-80641000D01*
X155479000Y-80637000D01*
X155484000Y-80633000D01*
X155490000Y-80629000D01*
X155495000Y-80626000D01*
X155501000Y-80623000D01*
X155506000Y-80620000D01*
X155512000Y-80618000D01*
X155518000Y-80616000D01*
X155524000Y-80614000D01*
X155530000Y-80613000D01*
X155536000Y-80611000D01*
X155542000Y-80611000D01*
X155549000Y-80610000D01*
X155555000Y-80610000D01*
X156065000Y-80610000D01*
X156071000Y-80610000D01*
X156078000Y-80611000D01*
G37*
X156078000Y-81111000D02*
X156084000Y-81111000D01*
X156090000Y-81113000D01*
X156096000Y-81114000D01*
X156102000Y-81116000D01*
X156108000Y-81118000D01*
X156114000Y-81120000D01*
X156119000Y-81123000D01*
X156125000Y-81126000D01*
X156130000Y-81129000D01*
X156136000Y-81133000D01*
X156141000Y-81137000D01*
X156145000Y-81141000D01*
X156150000Y-81145000D01*
X156154000Y-81150000D01*
X156158000Y-81154000D01*
X156162000Y-81159000D01*
X156166000Y-81165000D01*
X156169000Y-81170000D01*
X156172000Y-81176000D01*
X156175000Y-81181000D01*
X156177000Y-81187000D01*
X156179000Y-81193000D01*
X156181000Y-81199000D01*
X156182000Y-81205000D01*
X156184000Y-81211000D01*
X156184000Y-81217000D01*
X156185000Y-81224000D01*
X156185000Y-81230000D01*
X156185000Y-81370000D01*
X156185000Y-81376000D01*
X156184000Y-81383000D01*
X156184000Y-81389000D01*
X156182000Y-81395000D01*
X156181000Y-81401000D01*
X156179000Y-81407000D01*
X156177000Y-81413000D01*
X156175000Y-81419000D01*
X156172000Y-81424000D01*
X156169000Y-81430000D01*
X156166000Y-81435000D01*
X156162000Y-81441000D01*
X156158000Y-81446000D01*
X156154000Y-81450000D01*
X156150000Y-81455000D01*
X156145000Y-81459000D01*
X156141000Y-81463000D01*
X156136000Y-81467000D01*
X156130000Y-81471000D01*
X156125000Y-81474000D01*
X156119000Y-81477000D01*
X156114000Y-81480000D01*
X156108000Y-81482000D01*
X156102000Y-81484000D01*
X156096000Y-81486000D01*
X156090000Y-81487000D01*
X156084000Y-81489000D01*
X156078000Y-81489000D01*
X156071000Y-81490000D01*
X156065000Y-81490000D01*
X155555000Y-81490000D01*
X155549000Y-81490000D01*
X155542000Y-81489000D01*
X155536000Y-81489000D01*
X155530000Y-81487000D01*
X155524000Y-81486000D01*
X155518000Y-81484000D01*
X155512000Y-81482000D01*
X155506000Y-81480000D01*
X155501000Y-81477000D01*
X155495000Y-81474000D01*
X155490000Y-81471000D01*
X155484000Y-81467000D01*
X155479000Y-81463000D01*
X155475000Y-81459000D01*
X155470000Y-81455000D01*
X155466000Y-81450000D01*
X155462000Y-81446000D01*
X155458000Y-81441000D01*
X155454000Y-81435000D01*
X155451000Y-81430000D01*
X155448000Y-81424000D01*
X155445000Y-81419000D01*
X155443000Y-81413000D01*
X155441000Y-81407000D01*
X155439000Y-81401000D01*
X155438000Y-81395000D01*
X155436000Y-81389000D01*
X155436000Y-81383000D01*
X155435000Y-81376000D01*
X155435000Y-81370000D01*
X155435000Y-81230000D01*
X155435000Y-81224000D01*
X155436000Y-81217000D01*
X155436000Y-81211000D01*
X155438000Y-81205000D01*
X155439000Y-81199000D01*
X155441000Y-81193000D01*
X155443000Y-81187000D01*
X155445000Y-81181000D01*
X155448000Y-81176000D01*
X155451000Y-81170000D01*
X155454000Y-81165000D01*
X155458000Y-81159000D01*
X155462000Y-81154000D01*
X155466000Y-81150000D01*
X155470000Y-81145000D01*
X155475000Y-81141000D01*
X155479000Y-81137000D01*
X155484000Y-81133000D01*
X155490000Y-81129000D01*
X155495000Y-81126000D01*
X155501000Y-81123000D01*
X155506000Y-81120000D01*
X155512000Y-81118000D01*
X155518000Y-81116000D01*
X155524000Y-81114000D01*
X155530000Y-81113000D01*
X155536000Y-81111000D01*
X155542000Y-81111000D01*
X155549000Y-81110000D01*
X155555000Y-81110000D01*
X156065000Y-81110000D01*
X156071000Y-81110000D01*
X156078000Y-81111000D01*
G36*
X156078000Y-81111000D02*
G01*
X156084000Y-81111000D01*
X156090000Y-81113000D01*
X156096000Y-81114000D01*
X156102000Y-81116000D01*
X156108000Y-81118000D01*
X156114000Y-81120000D01*
X156119000Y-81123000D01*
X156125000Y-81126000D01*
X156130000Y-81129000D01*
X156136000Y-81133000D01*
X156141000Y-81137000D01*
X156145000Y-81141000D01*
X156150000Y-81145000D01*
X156154000Y-81150000D01*
X156158000Y-81154000D01*
X156162000Y-81159000D01*
X156166000Y-81165000D01*
X156169000Y-81170000D01*
X156172000Y-81176000D01*
X156175000Y-81181000D01*
X156177000Y-81187000D01*
X156179000Y-81193000D01*
X156181000Y-81199000D01*
X156182000Y-81205000D01*
X156184000Y-81211000D01*
X156184000Y-81217000D01*
X156185000Y-81224000D01*
X156185000Y-81230000D01*
X156185000Y-81370000D01*
X156185000Y-81376000D01*
X156184000Y-81383000D01*
X156184000Y-81389000D01*
X156182000Y-81395000D01*
X156181000Y-81401000D01*
X156179000Y-81407000D01*
X156177000Y-81413000D01*
X156175000Y-81419000D01*
X156172000Y-81424000D01*
X156169000Y-81430000D01*
X156166000Y-81435000D01*
X156162000Y-81441000D01*
X156158000Y-81446000D01*
X156154000Y-81450000D01*
X156150000Y-81455000D01*
X156145000Y-81459000D01*
X156141000Y-81463000D01*
X156136000Y-81467000D01*
X156130000Y-81471000D01*
X156125000Y-81474000D01*
X156119000Y-81477000D01*
X156114000Y-81480000D01*
X156108000Y-81482000D01*
X156102000Y-81484000D01*
X156096000Y-81486000D01*
X156090000Y-81487000D01*
X156084000Y-81489000D01*
X156078000Y-81489000D01*
X156071000Y-81490000D01*
X156065000Y-81490000D01*
X155555000Y-81490000D01*
X155549000Y-81490000D01*
X155542000Y-81489000D01*
X155536000Y-81489000D01*
X155530000Y-81487000D01*
X155524000Y-81486000D01*
X155518000Y-81484000D01*
X155512000Y-81482000D01*
X155506000Y-81480000D01*
X155501000Y-81477000D01*
X155495000Y-81474000D01*
X155490000Y-81471000D01*
X155484000Y-81467000D01*
X155479000Y-81463000D01*
X155475000Y-81459000D01*
X155470000Y-81455000D01*
X155466000Y-81450000D01*
X155462000Y-81446000D01*
X155458000Y-81441000D01*
X155454000Y-81435000D01*
X155451000Y-81430000D01*
X155448000Y-81424000D01*
X155445000Y-81419000D01*
X155443000Y-81413000D01*
X155441000Y-81407000D01*
X155439000Y-81401000D01*
X155438000Y-81395000D01*
X155436000Y-81389000D01*
X155436000Y-81383000D01*
X155435000Y-81376000D01*
X155435000Y-81370000D01*
X155435000Y-81230000D01*
X155435000Y-81224000D01*
X155436000Y-81217000D01*
X155436000Y-81211000D01*
X155438000Y-81205000D01*
X155439000Y-81199000D01*
X155441000Y-81193000D01*
X155443000Y-81187000D01*
X155445000Y-81181000D01*
X155448000Y-81176000D01*
X155451000Y-81170000D01*
X155454000Y-81165000D01*
X155458000Y-81159000D01*
X155462000Y-81154000D01*
X155466000Y-81150000D01*
X155470000Y-81145000D01*
X155475000Y-81141000D01*
X155479000Y-81137000D01*
X155484000Y-81133000D01*
X155490000Y-81129000D01*
X155495000Y-81126000D01*
X155501000Y-81123000D01*
X155506000Y-81120000D01*
X155512000Y-81118000D01*
X155518000Y-81116000D01*
X155524000Y-81114000D01*
X155530000Y-81113000D01*
X155536000Y-81111000D01*
X155542000Y-81111000D01*
X155549000Y-81110000D01*
X155555000Y-81110000D01*
X156065000Y-81110000D01*
X156071000Y-81110000D01*
X156078000Y-81111000D01*
G37*
X156078000Y-82111000D02*
X156084000Y-82111000D01*
X156090000Y-82113000D01*
X156096000Y-82114000D01*
X156102000Y-82116000D01*
X156108000Y-82118000D01*
X156114000Y-82120000D01*
X156119000Y-82123000D01*
X156125000Y-82126000D01*
X156130000Y-82129000D01*
X156136000Y-82133000D01*
X156141000Y-82137000D01*
X156145000Y-82141000D01*
X156150000Y-82145000D01*
X156154000Y-82150000D01*
X156158000Y-82154000D01*
X156162000Y-82159000D01*
X156166000Y-82165000D01*
X156169000Y-82170000D01*
X156172000Y-82176000D01*
X156175000Y-82181000D01*
X156177000Y-82187000D01*
X156179000Y-82193000D01*
X156181000Y-82199000D01*
X156182000Y-82205000D01*
X156184000Y-82211000D01*
X156184000Y-82217000D01*
X156185000Y-82224000D01*
X156185000Y-82230000D01*
X156185000Y-82370000D01*
X156185000Y-82376000D01*
X156184000Y-82383000D01*
X156184000Y-82389000D01*
X156182000Y-82395000D01*
X156181000Y-82401000D01*
X156179000Y-82407000D01*
X156177000Y-82413000D01*
X156175000Y-82419000D01*
X156172000Y-82424000D01*
X156169000Y-82430000D01*
X156166000Y-82435000D01*
X156162000Y-82441000D01*
X156158000Y-82446000D01*
X156154000Y-82450000D01*
X156150000Y-82455000D01*
X156145000Y-82459000D01*
X156141000Y-82463000D01*
X156136000Y-82467000D01*
X156130000Y-82471000D01*
X156125000Y-82474000D01*
X156119000Y-82477000D01*
X156114000Y-82480000D01*
X156108000Y-82482000D01*
X156102000Y-82484000D01*
X156096000Y-82486000D01*
X156090000Y-82487000D01*
X156084000Y-82489000D01*
X156078000Y-82489000D01*
X156071000Y-82490000D01*
X156065000Y-82490000D01*
X155555000Y-82490000D01*
X155549000Y-82490000D01*
X155542000Y-82489000D01*
X155536000Y-82489000D01*
X155530000Y-82487000D01*
X155524000Y-82486000D01*
X155518000Y-82484000D01*
X155512000Y-82482000D01*
X155506000Y-82480000D01*
X155501000Y-82477000D01*
X155495000Y-82474000D01*
X155490000Y-82471000D01*
X155484000Y-82467000D01*
X155479000Y-82463000D01*
X155475000Y-82459000D01*
X155470000Y-82455000D01*
X155466000Y-82450000D01*
X155462000Y-82446000D01*
X155458000Y-82441000D01*
X155454000Y-82435000D01*
X155451000Y-82430000D01*
X155448000Y-82424000D01*
X155445000Y-82419000D01*
X155443000Y-82413000D01*
X155441000Y-82407000D01*
X155439000Y-82401000D01*
X155438000Y-82395000D01*
X155436000Y-82389000D01*
X155436000Y-82383000D01*
X155435000Y-82376000D01*
X155435000Y-82370000D01*
X155435000Y-82230000D01*
X155435000Y-82224000D01*
X155436000Y-82217000D01*
X155436000Y-82211000D01*
X155438000Y-82205000D01*
X155439000Y-82199000D01*
X155441000Y-82193000D01*
X155443000Y-82187000D01*
X155445000Y-82181000D01*
X155448000Y-82176000D01*
X155451000Y-82170000D01*
X155454000Y-82165000D01*
X155458000Y-82159000D01*
X155462000Y-82154000D01*
X155466000Y-82150000D01*
X155470000Y-82145000D01*
X155475000Y-82141000D01*
X155479000Y-82137000D01*
X155484000Y-82133000D01*
X155490000Y-82129000D01*
X155495000Y-82126000D01*
X155501000Y-82123000D01*
X155506000Y-82120000D01*
X155512000Y-82118000D01*
X155518000Y-82116000D01*
X155524000Y-82114000D01*
X155530000Y-82113000D01*
X155536000Y-82111000D01*
X155542000Y-82111000D01*
X155549000Y-82110000D01*
X155555000Y-82110000D01*
X156065000Y-82110000D01*
X156071000Y-82110000D01*
X156078000Y-82111000D01*
G36*
X156078000Y-82111000D02*
G01*
X156084000Y-82111000D01*
X156090000Y-82113000D01*
X156096000Y-82114000D01*
X156102000Y-82116000D01*
X156108000Y-82118000D01*
X156114000Y-82120000D01*
X156119000Y-82123000D01*
X156125000Y-82126000D01*
X156130000Y-82129000D01*
X156136000Y-82133000D01*
X156141000Y-82137000D01*
X156145000Y-82141000D01*
X156150000Y-82145000D01*
X156154000Y-82150000D01*
X156158000Y-82154000D01*
X156162000Y-82159000D01*
X156166000Y-82165000D01*
X156169000Y-82170000D01*
X156172000Y-82176000D01*
X156175000Y-82181000D01*
X156177000Y-82187000D01*
X156179000Y-82193000D01*
X156181000Y-82199000D01*
X156182000Y-82205000D01*
X156184000Y-82211000D01*
X156184000Y-82217000D01*
X156185000Y-82224000D01*
X156185000Y-82230000D01*
X156185000Y-82370000D01*
X156185000Y-82376000D01*
X156184000Y-82383000D01*
X156184000Y-82389000D01*
X156182000Y-82395000D01*
X156181000Y-82401000D01*
X156179000Y-82407000D01*
X156177000Y-82413000D01*
X156175000Y-82419000D01*
X156172000Y-82424000D01*
X156169000Y-82430000D01*
X156166000Y-82435000D01*
X156162000Y-82441000D01*
X156158000Y-82446000D01*
X156154000Y-82450000D01*
X156150000Y-82455000D01*
X156145000Y-82459000D01*
X156141000Y-82463000D01*
X156136000Y-82467000D01*
X156130000Y-82471000D01*
X156125000Y-82474000D01*
X156119000Y-82477000D01*
X156114000Y-82480000D01*
X156108000Y-82482000D01*
X156102000Y-82484000D01*
X156096000Y-82486000D01*
X156090000Y-82487000D01*
X156084000Y-82489000D01*
X156078000Y-82489000D01*
X156071000Y-82490000D01*
X156065000Y-82490000D01*
X155555000Y-82490000D01*
X155549000Y-82490000D01*
X155542000Y-82489000D01*
X155536000Y-82489000D01*
X155530000Y-82487000D01*
X155524000Y-82486000D01*
X155518000Y-82484000D01*
X155512000Y-82482000D01*
X155506000Y-82480000D01*
X155501000Y-82477000D01*
X155495000Y-82474000D01*
X155490000Y-82471000D01*
X155484000Y-82467000D01*
X155479000Y-82463000D01*
X155475000Y-82459000D01*
X155470000Y-82455000D01*
X155466000Y-82450000D01*
X155462000Y-82446000D01*
X155458000Y-82441000D01*
X155454000Y-82435000D01*
X155451000Y-82430000D01*
X155448000Y-82424000D01*
X155445000Y-82419000D01*
X155443000Y-82413000D01*
X155441000Y-82407000D01*
X155439000Y-82401000D01*
X155438000Y-82395000D01*
X155436000Y-82389000D01*
X155436000Y-82383000D01*
X155435000Y-82376000D01*
X155435000Y-82370000D01*
X155435000Y-82230000D01*
X155435000Y-82224000D01*
X155436000Y-82217000D01*
X155436000Y-82211000D01*
X155438000Y-82205000D01*
X155439000Y-82199000D01*
X155441000Y-82193000D01*
X155443000Y-82187000D01*
X155445000Y-82181000D01*
X155448000Y-82176000D01*
X155451000Y-82170000D01*
X155454000Y-82165000D01*
X155458000Y-82159000D01*
X155462000Y-82154000D01*
X155466000Y-82150000D01*
X155470000Y-82145000D01*
X155475000Y-82141000D01*
X155479000Y-82137000D01*
X155484000Y-82133000D01*
X155490000Y-82129000D01*
X155495000Y-82126000D01*
X155501000Y-82123000D01*
X155506000Y-82120000D01*
X155512000Y-82118000D01*
X155518000Y-82116000D01*
X155524000Y-82114000D01*
X155530000Y-82113000D01*
X155536000Y-82111000D01*
X155542000Y-82111000D01*
X155549000Y-82110000D01*
X155555000Y-82110000D01*
X156065000Y-82110000D01*
X156071000Y-82110000D01*
X156078000Y-82111000D01*
G37*
X156078000Y-82611000D02*
X156084000Y-82611000D01*
X156090000Y-82613000D01*
X156096000Y-82614000D01*
X156102000Y-82616000D01*
X156108000Y-82618000D01*
X156114000Y-82620000D01*
X156119000Y-82623000D01*
X156125000Y-82626000D01*
X156130000Y-82629000D01*
X156136000Y-82633000D01*
X156141000Y-82637000D01*
X156145000Y-82641000D01*
X156150000Y-82645000D01*
X156154000Y-82650000D01*
X156158000Y-82654000D01*
X156162000Y-82659000D01*
X156166000Y-82665000D01*
X156169000Y-82670000D01*
X156172000Y-82676000D01*
X156175000Y-82681000D01*
X156177000Y-82687000D01*
X156179000Y-82693000D01*
X156181000Y-82699000D01*
X156182000Y-82705000D01*
X156184000Y-82711000D01*
X156184000Y-82717000D01*
X156185000Y-82724000D01*
X156185000Y-82730000D01*
X156185000Y-82870000D01*
X156185000Y-82876000D01*
X156184000Y-82883000D01*
X156184000Y-82889000D01*
X156182000Y-82895000D01*
X156181000Y-82901000D01*
X156179000Y-82907000D01*
X156177000Y-82913000D01*
X156175000Y-82919000D01*
X156172000Y-82924000D01*
X156169000Y-82930000D01*
X156166000Y-82935000D01*
X156162000Y-82941000D01*
X156158000Y-82946000D01*
X156154000Y-82950000D01*
X156150000Y-82955000D01*
X156145000Y-82959000D01*
X156141000Y-82963000D01*
X156136000Y-82967000D01*
X156130000Y-82971000D01*
X156125000Y-82974000D01*
X156119000Y-82977000D01*
X156114000Y-82980000D01*
X156108000Y-82982000D01*
X156102000Y-82984000D01*
X156096000Y-82986000D01*
X156090000Y-82987000D01*
X156084000Y-82989000D01*
X156078000Y-82989000D01*
X156071000Y-82990000D01*
X156065000Y-82990000D01*
X155555000Y-82990000D01*
X155549000Y-82990000D01*
X155542000Y-82989000D01*
X155536000Y-82989000D01*
X155530000Y-82987000D01*
X155524000Y-82986000D01*
X155518000Y-82984000D01*
X155512000Y-82982000D01*
X155506000Y-82980000D01*
X155501000Y-82977000D01*
X155495000Y-82974000D01*
X155490000Y-82971000D01*
X155484000Y-82967000D01*
X155479000Y-82963000D01*
X155475000Y-82959000D01*
X155470000Y-82955000D01*
X155466000Y-82950000D01*
X155462000Y-82946000D01*
X155458000Y-82941000D01*
X155454000Y-82935000D01*
X155451000Y-82930000D01*
X155448000Y-82924000D01*
X155445000Y-82919000D01*
X155443000Y-82913000D01*
X155441000Y-82907000D01*
X155439000Y-82901000D01*
X155438000Y-82895000D01*
X155436000Y-82889000D01*
X155436000Y-82883000D01*
X155435000Y-82876000D01*
X155435000Y-82870000D01*
X155435000Y-82730000D01*
X155435000Y-82724000D01*
X155436000Y-82717000D01*
X155436000Y-82711000D01*
X155438000Y-82705000D01*
X155439000Y-82699000D01*
X155441000Y-82693000D01*
X155443000Y-82687000D01*
X155445000Y-82681000D01*
X155448000Y-82676000D01*
X155451000Y-82670000D01*
X155454000Y-82665000D01*
X155458000Y-82659000D01*
X155462000Y-82654000D01*
X155466000Y-82650000D01*
X155470000Y-82645000D01*
X155475000Y-82641000D01*
X155479000Y-82637000D01*
X155484000Y-82633000D01*
X155490000Y-82629000D01*
X155495000Y-82626000D01*
X155501000Y-82623000D01*
X155506000Y-82620000D01*
X155512000Y-82618000D01*
X155518000Y-82616000D01*
X155524000Y-82614000D01*
X155530000Y-82613000D01*
X155536000Y-82611000D01*
X155542000Y-82611000D01*
X155549000Y-82610000D01*
X155555000Y-82610000D01*
X156065000Y-82610000D01*
X156071000Y-82610000D01*
X156078000Y-82611000D01*
G36*
X156078000Y-82611000D02*
G01*
X156084000Y-82611000D01*
X156090000Y-82613000D01*
X156096000Y-82614000D01*
X156102000Y-82616000D01*
X156108000Y-82618000D01*
X156114000Y-82620000D01*
X156119000Y-82623000D01*
X156125000Y-82626000D01*
X156130000Y-82629000D01*
X156136000Y-82633000D01*
X156141000Y-82637000D01*
X156145000Y-82641000D01*
X156150000Y-82645000D01*
X156154000Y-82650000D01*
X156158000Y-82654000D01*
X156162000Y-82659000D01*
X156166000Y-82665000D01*
X156169000Y-82670000D01*
X156172000Y-82676000D01*
X156175000Y-82681000D01*
X156177000Y-82687000D01*
X156179000Y-82693000D01*
X156181000Y-82699000D01*
X156182000Y-82705000D01*
X156184000Y-82711000D01*
X156184000Y-82717000D01*
X156185000Y-82724000D01*
X156185000Y-82730000D01*
X156185000Y-82870000D01*
X156185000Y-82876000D01*
X156184000Y-82883000D01*
X156184000Y-82889000D01*
X156182000Y-82895000D01*
X156181000Y-82901000D01*
X156179000Y-82907000D01*
X156177000Y-82913000D01*
X156175000Y-82919000D01*
X156172000Y-82924000D01*
X156169000Y-82930000D01*
X156166000Y-82935000D01*
X156162000Y-82941000D01*
X156158000Y-82946000D01*
X156154000Y-82950000D01*
X156150000Y-82955000D01*
X156145000Y-82959000D01*
X156141000Y-82963000D01*
X156136000Y-82967000D01*
X156130000Y-82971000D01*
X156125000Y-82974000D01*
X156119000Y-82977000D01*
X156114000Y-82980000D01*
X156108000Y-82982000D01*
X156102000Y-82984000D01*
X156096000Y-82986000D01*
X156090000Y-82987000D01*
X156084000Y-82989000D01*
X156078000Y-82989000D01*
X156071000Y-82990000D01*
X156065000Y-82990000D01*
X155555000Y-82990000D01*
X155549000Y-82990000D01*
X155542000Y-82989000D01*
X155536000Y-82989000D01*
X155530000Y-82987000D01*
X155524000Y-82986000D01*
X155518000Y-82984000D01*
X155512000Y-82982000D01*
X155506000Y-82980000D01*
X155501000Y-82977000D01*
X155495000Y-82974000D01*
X155490000Y-82971000D01*
X155484000Y-82967000D01*
X155479000Y-82963000D01*
X155475000Y-82959000D01*
X155470000Y-82955000D01*
X155466000Y-82950000D01*
X155462000Y-82946000D01*
X155458000Y-82941000D01*
X155454000Y-82935000D01*
X155451000Y-82930000D01*
X155448000Y-82924000D01*
X155445000Y-82919000D01*
X155443000Y-82913000D01*
X155441000Y-82907000D01*
X155439000Y-82901000D01*
X155438000Y-82895000D01*
X155436000Y-82889000D01*
X155436000Y-82883000D01*
X155435000Y-82876000D01*
X155435000Y-82870000D01*
X155435000Y-82730000D01*
X155435000Y-82724000D01*
X155436000Y-82717000D01*
X155436000Y-82711000D01*
X155438000Y-82705000D01*
X155439000Y-82699000D01*
X155441000Y-82693000D01*
X155443000Y-82687000D01*
X155445000Y-82681000D01*
X155448000Y-82676000D01*
X155451000Y-82670000D01*
X155454000Y-82665000D01*
X155458000Y-82659000D01*
X155462000Y-82654000D01*
X155466000Y-82650000D01*
X155470000Y-82645000D01*
X155475000Y-82641000D01*
X155479000Y-82637000D01*
X155484000Y-82633000D01*
X155490000Y-82629000D01*
X155495000Y-82626000D01*
X155501000Y-82623000D01*
X155506000Y-82620000D01*
X155512000Y-82618000D01*
X155518000Y-82616000D01*
X155524000Y-82614000D01*
X155530000Y-82613000D01*
X155536000Y-82611000D01*
X155542000Y-82611000D01*
X155549000Y-82610000D01*
X155555000Y-82610000D01*
X156065000Y-82610000D01*
X156071000Y-82610000D01*
X156078000Y-82611000D01*
G37*
X156078000Y-81611000D02*
X156084000Y-81611000D01*
X156090000Y-81613000D01*
X156096000Y-81614000D01*
X156102000Y-81616000D01*
X156108000Y-81618000D01*
X156114000Y-81620000D01*
X156119000Y-81623000D01*
X156125000Y-81626000D01*
X156130000Y-81629000D01*
X156136000Y-81633000D01*
X156141000Y-81637000D01*
X156145000Y-81641000D01*
X156150000Y-81645000D01*
X156154000Y-81650000D01*
X156158000Y-81654000D01*
X156162000Y-81659000D01*
X156166000Y-81665000D01*
X156169000Y-81670000D01*
X156172000Y-81676000D01*
X156175000Y-81681000D01*
X156177000Y-81687000D01*
X156179000Y-81693000D01*
X156181000Y-81699000D01*
X156182000Y-81705000D01*
X156184000Y-81711000D01*
X156184000Y-81717000D01*
X156185000Y-81724000D01*
X156185000Y-81730000D01*
X156185000Y-81870000D01*
X156185000Y-81876000D01*
X156184000Y-81883000D01*
X156184000Y-81889000D01*
X156182000Y-81895000D01*
X156181000Y-81901000D01*
X156179000Y-81907000D01*
X156177000Y-81913000D01*
X156175000Y-81919000D01*
X156172000Y-81924000D01*
X156169000Y-81930000D01*
X156166000Y-81935000D01*
X156162000Y-81941000D01*
X156158000Y-81946000D01*
X156154000Y-81950000D01*
X156150000Y-81955000D01*
X156145000Y-81959000D01*
X156141000Y-81963000D01*
X156136000Y-81967000D01*
X156130000Y-81971000D01*
X156125000Y-81974000D01*
X156119000Y-81977000D01*
X156114000Y-81980000D01*
X156108000Y-81982000D01*
X156102000Y-81984000D01*
X156096000Y-81986000D01*
X156090000Y-81987000D01*
X156084000Y-81989000D01*
X156078000Y-81989000D01*
X156071000Y-81990000D01*
X156065000Y-81990000D01*
X155555000Y-81990000D01*
X155549000Y-81990000D01*
X155542000Y-81989000D01*
X155536000Y-81989000D01*
X155530000Y-81987000D01*
X155524000Y-81986000D01*
X155518000Y-81984000D01*
X155512000Y-81982000D01*
X155506000Y-81980000D01*
X155501000Y-81977000D01*
X155495000Y-81974000D01*
X155490000Y-81971000D01*
X155484000Y-81967000D01*
X155479000Y-81963000D01*
X155475000Y-81959000D01*
X155470000Y-81955000D01*
X155466000Y-81950000D01*
X155462000Y-81946000D01*
X155458000Y-81941000D01*
X155454000Y-81935000D01*
X155451000Y-81930000D01*
X155448000Y-81924000D01*
X155445000Y-81919000D01*
X155443000Y-81913000D01*
X155441000Y-81907000D01*
X155439000Y-81901000D01*
X155438000Y-81895000D01*
X155436000Y-81889000D01*
X155436000Y-81883000D01*
X155435000Y-81876000D01*
X155435000Y-81870000D01*
X155435000Y-81730000D01*
X155435000Y-81724000D01*
X155436000Y-81717000D01*
X155436000Y-81711000D01*
X155438000Y-81705000D01*
X155439000Y-81699000D01*
X155441000Y-81693000D01*
X155443000Y-81687000D01*
X155445000Y-81681000D01*
X155448000Y-81676000D01*
X155451000Y-81670000D01*
X155454000Y-81665000D01*
X155458000Y-81659000D01*
X155462000Y-81654000D01*
X155466000Y-81650000D01*
X155470000Y-81645000D01*
X155475000Y-81641000D01*
X155479000Y-81637000D01*
X155484000Y-81633000D01*
X155490000Y-81629000D01*
X155495000Y-81626000D01*
X155501000Y-81623000D01*
X155506000Y-81620000D01*
X155512000Y-81618000D01*
X155518000Y-81616000D01*
X155524000Y-81614000D01*
X155530000Y-81613000D01*
X155536000Y-81611000D01*
X155542000Y-81611000D01*
X155549000Y-81610000D01*
X155555000Y-81610000D01*
X156065000Y-81610000D01*
X156071000Y-81610000D01*
X156078000Y-81611000D01*
G36*
X156078000Y-81611000D02*
G01*
X156084000Y-81611000D01*
X156090000Y-81613000D01*
X156096000Y-81614000D01*
X156102000Y-81616000D01*
X156108000Y-81618000D01*
X156114000Y-81620000D01*
X156119000Y-81623000D01*
X156125000Y-81626000D01*
X156130000Y-81629000D01*
X156136000Y-81633000D01*
X156141000Y-81637000D01*
X156145000Y-81641000D01*
X156150000Y-81645000D01*
X156154000Y-81650000D01*
X156158000Y-81654000D01*
X156162000Y-81659000D01*
X156166000Y-81665000D01*
X156169000Y-81670000D01*
X156172000Y-81676000D01*
X156175000Y-81681000D01*
X156177000Y-81687000D01*
X156179000Y-81693000D01*
X156181000Y-81699000D01*
X156182000Y-81705000D01*
X156184000Y-81711000D01*
X156184000Y-81717000D01*
X156185000Y-81724000D01*
X156185000Y-81730000D01*
X156185000Y-81870000D01*
X156185000Y-81876000D01*
X156184000Y-81883000D01*
X156184000Y-81889000D01*
X156182000Y-81895000D01*
X156181000Y-81901000D01*
X156179000Y-81907000D01*
X156177000Y-81913000D01*
X156175000Y-81919000D01*
X156172000Y-81924000D01*
X156169000Y-81930000D01*
X156166000Y-81935000D01*
X156162000Y-81941000D01*
X156158000Y-81946000D01*
X156154000Y-81950000D01*
X156150000Y-81955000D01*
X156145000Y-81959000D01*
X156141000Y-81963000D01*
X156136000Y-81967000D01*
X156130000Y-81971000D01*
X156125000Y-81974000D01*
X156119000Y-81977000D01*
X156114000Y-81980000D01*
X156108000Y-81982000D01*
X156102000Y-81984000D01*
X156096000Y-81986000D01*
X156090000Y-81987000D01*
X156084000Y-81989000D01*
X156078000Y-81989000D01*
X156071000Y-81990000D01*
X156065000Y-81990000D01*
X155555000Y-81990000D01*
X155549000Y-81990000D01*
X155542000Y-81989000D01*
X155536000Y-81989000D01*
X155530000Y-81987000D01*
X155524000Y-81986000D01*
X155518000Y-81984000D01*
X155512000Y-81982000D01*
X155506000Y-81980000D01*
X155501000Y-81977000D01*
X155495000Y-81974000D01*
X155490000Y-81971000D01*
X155484000Y-81967000D01*
X155479000Y-81963000D01*
X155475000Y-81959000D01*
X155470000Y-81955000D01*
X155466000Y-81950000D01*
X155462000Y-81946000D01*
X155458000Y-81941000D01*
X155454000Y-81935000D01*
X155451000Y-81930000D01*
X155448000Y-81924000D01*
X155445000Y-81919000D01*
X155443000Y-81913000D01*
X155441000Y-81907000D01*
X155439000Y-81901000D01*
X155438000Y-81895000D01*
X155436000Y-81889000D01*
X155436000Y-81883000D01*
X155435000Y-81876000D01*
X155435000Y-81870000D01*
X155435000Y-81730000D01*
X155435000Y-81724000D01*
X155436000Y-81717000D01*
X155436000Y-81711000D01*
X155438000Y-81705000D01*
X155439000Y-81699000D01*
X155441000Y-81693000D01*
X155443000Y-81687000D01*
X155445000Y-81681000D01*
X155448000Y-81676000D01*
X155451000Y-81670000D01*
X155454000Y-81665000D01*
X155458000Y-81659000D01*
X155462000Y-81654000D01*
X155466000Y-81650000D01*
X155470000Y-81645000D01*
X155475000Y-81641000D01*
X155479000Y-81637000D01*
X155484000Y-81633000D01*
X155490000Y-81629000D01*
X155495000Y-81626000D01*
X155501000Y-81623000D01*
X155506000Y-81620000D01*
X155512000Y-81618000D01*
X155518000Y-81616000D01*
X155524000Y-81614000D01*
X155530000Y-81613000D01*
X155536000Y-81611000D01*
X155542000Y-81611000D01*
X155549000Y-81610000D01*
X155555000Y-81610000D01*
X156065000Y-81610000D01*
X156071000Y-81610000D01*
X156078000Y-81611000D01*
G37*
X156078000Y-83111000D02*
X156084000Y-83111000D01*
X156090000Y-83113000D01*
X156096000Y-83114000D01*
X156102000Y-83116000D01*
X156108000Y-83118000D01*
X156114000Y-83120000D01*
X156119000Y-83123000D01*
X156125000Y-83126000D01*
X156130000Y-83129000D01*
X156136000Y-83133000D01*
X156141000Y-83137000D01*
X156145000Y-83141000D01*
X156150000Y-83145000D01*
X156154000Y-83150000D01*
X156158000Y-83154000D01*
X156162000Y-83159000D01*
X156166000Y-83165000D01*
X156169000Y-83170000D01*
X156172000Y-83176000D01*
X156175000Y-83181000D01*
X156177000Y-83187000D01*
X156179000Y-83193000D01*
X156181000Y-83199000D01*
X156182000Y-83205000D01*
X156184000Y-83211000D01*
X156184000Y-83217000D01*
X156185000Y-83224000D01*
X156185000Y-83230000D01*
X156185000Y-83370000D01*
X156185000Y-83376000D01*
X156184000Y-83383000D01*
X156184000Y-83389000D01*
X156182000Y-83395000D01*
X156181000Y-83401000D01*
X156179000Y-83407000D01*
X156177000Y-83413000D01*
X156175000Y-83419000D01*
X156172000Y-83424000D01*
X156169000Y-83430000D01*
X156166000Y-83435000D01*
X156162000Y-83441000D01*
X156158000Y-83446000D01*
X156154000Y-83450000D01*
X156150000Y-83455000D01*
X156145000Y-83459000D01*
X156141000Y-83463000D01*
X156136000Y-83467000D01*
X156130000Y-83471000D01*
X156125000Y-83474000D01*
X156119000Y-83477000D01*
X156114000Y-83480000D01*
X156108000Y-83482000D01*
X156102000Y-83484000D01*
X156096000Y-83486000D01*
X156090000Y-83487000D01*
X156084000Y-83489000D01*
X156078000Y-83489000D01*
X156071000Y-83490000D01*
X156065000Y-83490000D01*
X155555000Y-83490000D01*
X155549000Y-83490000D01*
X155542000Y-83489000D01*
X155536000Y-83489000D01*
X155530000Y-83487000D01*
X155524000Y-83486000D01*
X155518000Y-83484000D01*
X155512000Y-83482000D01*
X155506000Y-83480000D01*
X155501000Y-83477000D01*
X155495000Y-83474000D01*
X155490000Y-83471000D01*
X155484000Y-83467000D01*
X155479000Y-83463000D01*
X155475000Y-83459000D01*
X155470000Y-83455000D01*
X155466000Y-83450000D01*
X155462000Y-83446000D01*
X155458000Y-83441000D01*
X155454000Y-83435000D01*
X155451000Y-83430000D01*
X155448000Y-83424000D01*
X155445000Y-83419000D01*
X155443000Y-83413000D01*
X155441000Y-83407000D01*
X155439000Y-83401000D01*
X155438000Y-83395000D01*
X155436000Y-83389000D01*
X155436000Y-83383000D01*
X155435000Y-83376000D01*
X155435000Y-83370000D01*
X155435000Y-83230000D01*
X155435000Y-83224000D01*
X155436000Y-83217000D01*
X155436000Y-83211000D01*
X155438000Y-83205000D01*
X155439000Y-83199000D01*
X155441000Y-83193000D01*
X155443000Y-83187000D01*
X155445000Y-83181000D01*
X155448000Y-83176000D01*
X155451000Y-83170000D01*
X155454000Y-83165000D01*
X155458000Y-83159000D01*
X155462000Y-83154000D01*
X155466000Y-83150000D01*
X155470000Y-83145000D01*
X155475000Y-83141000D01*
X155479000Y-83137000D01*
X155484000Y-83133000D01*
X155490000Y-83129000D01*
X155495000Y-83126000D01*
X155501000Y-83123000D01*
X155506000Y-83120000D01*
X155512000Y-83118000D01*
X155518000Y-83116000D01*
X155524000Y-83114000D01*
X155530000Y-83113000D01*
X155536000Y-83111000D01*
X155542000Y-83111000D01*
X155549000Y-83110000D01*
X155555000Y-83110000D01*
X156065000Y-83110000D01*
X156071000Y-83110000D01*
X156078000Y-83111000D01*
G36*
X156078000Y-83111000D02*
G01*
X156084000Y-83111000D01*
X156090000Y-83113000D01*
X156096000Y-83114000D01*
X156102000Y-83116000D01*
X156108000Y-83118000D01*
X156114000Y-83120000D01*
X156119000Y-83123000D01*
X156125000Y-83126000D01*
X156130000Y-83129000D01*
X156136000Y-83133000D01*
X156141000Y-83137000D01*
X156145000Y-83141000D01*
X156150000Y-83145000D01*
X156154000Y-83150000D01*
X156158000Y-83154000D01*
X156162000Y-83159000D01*
X156166000Y-83165000D01*
X156169000Y-83170000D01*
X156172000Y-83176000D01*
X156175000Y-83181000D01*
X156177000Y-83187000D01*
X156179000Y-83193000D01*
X156181000Y-83199000D01*
X156182000Y-83205000D01*
X156184000Y-83211000D01*
X156184000Y-83217000D01*
X156185000Y-83224000D01*
X156185000Y-83230000D01*
X156185000Y-83370000D01*
X156185000Y-83376000D01*
X156184000Y-83383000D01*
X156184000Y-83389000D01*
X156182000Y-83395000D01*
X156181000Y-83401000D01*
X156179000Y-83407000D01*
X156177000Y-83413000D01*
X156175000Y-83419000D01*
X156172000Y-83424000D01*
X156169000Y-83430000D01*
X156166000Y-83435000D01*
X156162000Y-83441000D01*
X156158000Y-83446000D01*
X156154000Y-83450000D01*
X156150000Y-83455000D01*
X156145000Y-83459000D01*
X156141000Y-83463000D01*
X156136000Y-83467000D01*
X156130000Y-83471000D01*
X156125000Y-83474000D01*
X156119000Y-83477000D01*
X156114000Y-83480000D01*
X156108000Y-83482000D01*
X156102000Y-83484000D01*
X156096000Y-83486000D01*
X156090000Y-83487000D01*
X156084000Y-83489000D01*
X156078000Y-83489000D01*
X156071000Y-83490000D01*
X156065000Y-83490000D01*
X155555000Y-83490000D01*
X155549000Y-83490000D01*
X155542000Y-83489000D01*
X155536000Y-83489000D01*
X155530000Y-83487000D01*
X155524000Y-83486000D01*
X155518000Y-83484000D01*
X155512000Y-83482000D01*
X155506000Y-83480000D01*
X155501000Y-83477000D01*
X155495000Y-83474000D01*
X155490000Y-83471000D01*
X155484000Y-83467000D01*
X155479000Y-83463000D01*
X155475000Y-83459000D01*
X155470000Y-83455000D01*
X155466000Y-83450000D01*
X155462000Y-83446000D01*
X155458000Y-83441000D01*
X155454000Y-83435000D01*
X155451000Y-83430000D01*
X155448000Y-83424000D01*
X155445000Y-83419000D01*
X155443000Y-83413000D01*
X155441000Y-83407000D01*
X155439000Y-83401000D01*
X155438000Y-83395000D01*
X155436000Y-83389000D01*
X155436000Y-83383000D01*
X155435000Y-83376000D01*
X155435000Y-83370000D01*
X155435000Y-83230000D01*
X155435000Y-83224000D01*
X155436000Y-83217000D01*
X155436000Y-83211000D01*
X155438000Y-83205000D01*
X155439000Y-83199000D01*
X155441000Y-83193000D01*
X155443000Y-83187000D01*
X155445000Y-83181000D01*
X155448000Y-83176000D01*
X155451000Y-83170000D01*
X155454000Y-83165000D01*
X155458000Y-83159000D01*
X155462000Y-83154000D01*
X155466000Y-83150000D01*
X155470000Y-83145000D01*
X155475000Y-83141000D01*
X155479000Y-83137000D01*
X155484000Y-83133000D01*
X155490000Y-83129000D01*
X155495000Y-83126000D01*
X155501000Y-83123000D01*
X155506000Y-83120000D01*
X155512000Y-83118000D01*
X155518000Y-83116000D01*
X155524000Y-83114000D01*
X155530000Y-83113000D01*
X155536000Y-83111000D01*
X155542000Y-83111000D01*
X155549000Y-83110000D01*
X155555000Y-83110000D01*
X156065000Y-83110000D01*
X156071000Y-83110000D01*
X156078000Y-83111000D01*
G37*
X157813000Y-80731000D02*
X157819000Y-80731000D01*
X157825000Y-80733000D01*
X157831000Y-80734000D01*
X157837000Y-80736000D01*
X157843000Y-80738000D01*
X157849000Y-80740000D01*
X157854000Y-80743000D01*
X157860000Y-80746000D01*
X157865000Y-80749000D01*
X157871000Y-80753000D01*
X157876000Y-80757000D01*
X157880000Y-80761000D01*
X157885000Y-80765000D01*
X157889000Y-80770000D01*
X157893000Y-80774000D01*
X157897000Y-80779000D01*
X157901000Y-80785000D01*
X157904000Y-80790000D01*
X157907000Y-80796000D01*
X157910000Y-80801000D01*
X157912000Y-80807000D01*
X157914000Y-80813000D01*
X157916000Y-80819000D01*
X157917000Y-80825000D01*
X157919000Y-80831000D01*
X157919000Y-80837000D01*
X157920000Y-80844000D01*
X157920000Y-80850000D01*
X157920000Y-83250000D01*
X157920000Y-83256000D01*
X157919000Y-83263000D01*
X157919000Y-83269000D01*
X157917000Y-83275000D01*
X157916000Y-83281000D01*
X157914000Y-83287000D01*
X157912000Y-83293000D01*
X157910000Y-83299000D01*
X157907000Y-83304000D01*
X157904000Y-83310000D01*
X157901000Y-83315000D01*
X157897000Y-83321000D01*
X157893000Y-83326000D01*
X157889000Y-83330000D01*
X157885000Y-83335000D01*
X157880000Y-83339000D01*
X157876000Y-83343000D01*
X157871000Y-83347000D01*
X157865000Y-83351000D01*
X157860000Y-83354000D01*
X157854000Y-83357000D01*
X157849000Y-83360000D01*
X157843000Y-83362000D01*
X157837000Y-83364000D01*
X157831000Y-83366000D01*
X157825000Y-83367000D01*
X157819000Y-83369000D01*
X157813000Y-83369000D01*
X157806000Y-83370000D01*
X157800000Y-83370000D01*
X156600000Y-83370000D01*
X156594000Y-83370000D01*
X156587000Y-83369000D01*
X156581000Y-83369000D01*
X156575000Y-83367000D01*
X156569000Y-83366000D01*
X156563000Y-83364000D01*
X156557000Y-83362000D01*
X156551000Y-83360000D01*
X156546000Y-83357000D01*
X156540000Y-83354000D01*
X156535000Y-83351000D01*
X156529000Y-83347000D01*
X156524000Y-83343000D01*
X156520000Y-83339000D01*
X156515000Y-83335000D01*
X156511000Y-83330000D01*
X156507000Y-83326000D01*
X156503000Y-83321000D01*
X156499000Y-83315000D01*
X156496000Y-83310000D01*
X156493000Y-83304000D01*
X156490000Y-83299000D01*
X156488000Y-83293000D01*
X156486000Y-83287000D01*
X156484000Y-83281000D01*
X156483000Y-83275000D01*
X156481000Y-83269000D01*
X156481000Y-83263000D01*
X156480000Y-83256000D01*
X156480000Y-83250000D01*
X156480000Y-80850000D01*
X156480000Y-80844000D01*
X156481000Y-80837000D01*
X156481000Y-80831000D01*
X156483000Y-80825000D01*
X156484000Y-80819000D01*
X156486000Y-80813000D01*
X156488000Y-80807000D01*
X156490000Y-80801000D01*
X156493000Y-80796000D01*
X156496000Y-80790000D01*
X156499000Y-80785000D01*
X156503000Y-80779000D01*
X156507000Y-80774000D01*
X156511000Y-80770000D01*
X156515000Y-80765000D01*
X156520000Y-80761000D01*
X156524000Y-80757000D01*
X156529000Y-80753000D01*
X156535000Y-80749000D01*
X156540000Y-80746000D01*
X156546000Y-80743000D01*
X156551000Y-80740000D01*
X156557000Y-80738000D01*
X156563000Y-80736000D01*
X156569000Y-80734000D01*
X156575000Y-80733000D01*
X156581000Y-80731000D01*
X156587000Y-80731000D01*
X156594000Y-80730000D01*
X156600000Y-80730000D01*
X157800000Y-80730000D01*
X157806000Y-80730000D01*
X157813000Y-80731000D01*
G36*
X157813000Y-80731000D02*
G01*
X157819000Y-80731000D01*
X157825000Y-80733000D01*
X157831000Y-80734000D01*
X157837000Y-80736000D01*
X157843000Y-80738000D01*
X157849000Y-80740000D01*
X157854000Y-80743000D01*
X157860000Y-80746000D01*
X157865000Y-80749000D01*
X157871000Y-80753000D01*
X157876000Y-80757000D01*
X157880000Y-80761000D01*
X157885000Y-80765000D01*
X157889000Y-80770000D01*
X157893000Y-80774000D01*
X157897000Y-80779000D01*
X157901000Y-80785000D01*
X157904000Y-80790000D01*
X157907000Y-80796000D01*
X157910000Y-80801000D01*
X157912000Y-80807000D01*
X157914000Y-80813000D01*
X157916000Y-80819000D01*
X157917000Y-80825000D01*
X157919000Y-80831000D01*
X157919000Y-80837000D01*
X157920000Y-80844000D01*
X157920000Y-80850000D01*
X157920000Y-83250000D01*
X157920000Y-83256000D01*
X157919000Y-83263000D01*
X157919000Y-83269000D01*
X157917000Y-83275000D01*
X157916000Y-83281000D01*
X157914000Y-83287000D01*
X157912000Y-83293000D01*
X157910000Y-83299000D01*
X157907000Y-83304000D01*
X157904000Y-83310000D01*
X157901000Y-83315000D01*
X157897000Y-83321000D01*
X157893000Y-83326000D01*
X157889000Y-83330000D01*
X157885000Y-83335000D01*
X157880000Y-83339000D01*
X157876000Y-83343000D01*
X157871000Y-83347000D01*
X157865000Y-83351000D01*
X157860000Y-83354000D01*
X157854000Y-83357000D01*
X157849000Y-83360000D01*
X157843000Y-83362000D01*
X157837000Y-83364000D01*
X157831000Y-83366000D01*
X157825000Y-83367000D01*
X157819000Y-83369000D01*
X157813000Y-83369000D01*
X157806000Y-83370000D01*
X157800000Y-83370000D01*
X156600000Y-83370000D01*
X156594000Y-83370000D01*
X156587000Y-83369000D01*
X156581000Y-83369000D01*
X156575000Y-83367000D01*
X156569000Y-83366000D01*
X156563000Y-83364000D01*
X156557000Y-83362000D01*
X156551000Y-83360000D01*
X156546000Y-83357000D01*
X156540000Y-83354000D01*
X156535000Y-83351000D01*
X156529000Y-83347000D01*
X156524000Y-83343000D01*
X156520000Y-83339000D01*
X156515000Y-83335000D01*
X156511000Y-83330000D01*
X156507000Y-83326000D01*
X156503000Y-83321000D01*
X156499000Y-83315000D01*
X156496000Y-83310000D01*
X156493000Y-83304000D01*
X156490000Y-83299000D01*
X156488000Y-83293000D01*
X156486000Y-83287000D01*
X156484000Y-83281000D01*
X156483000Y-83275000D01*
X156481000Y-83269000D01*
X156481000Y-83263000D01*
X156480000Y-83256000D01*
X156480000Y-83250000D01*
X156480000Y-80850000D01*
X156480000Y-80844000D01*
X156481000Y-80837000D01*
X156481000Y-80831000D01*
X156483000Y-80825000D01*
X156484000Y-80819000D01*
X156486000Y-80813000D01*
X156488000Y-80807000D01*
X156490000Y-80801000D01*
X156493000Y-80796000D01*
X156496000Y-80790000D01*
X156499000Y-80785000D01*
X156503000Y-80779000D01*
X156507000Y-80774000D01*
X156511000Y-80770000D01*
X156515000Y-80765000D01*
X156520000Y-80761000D01*
X156524000Y-80757000D01*
X156529000Y-80753000D01*
X156535000Y-80749000D01*
X156540000Y-80746000D01*
X156546000Y-80743000D01*
X156551000Y-80740000D01*
X156557000Y-80738000D01*
X156563000Y-80736000D01*
X156569000Y-80734000D01*
X156575000Y-80733000D01*
X156581000Y-80731000D01*
X156587000Y-80731000D01*
X156594000Y-80730000D01*
X156600000Y-80730000D01*
X157800000Y-80730000D01*
X157806000Y-80730000D01*
X157813000Y-80731000D01*
G37*
X158858000Y-81611000D02*
X158864000Y-81611000D01*
X158870000Y-81613000D01*
X158876000Y-81614000D01*
X158882000Y-81616000D01*
X158888000Y-81618000D01*
X158894000Y-81620000D01*
X158899000Y-81623000D01*
X158905000Y-81626000D01*
X158910000Y-81629000D01*
X158916000Y-81633000D01*
X158921000Y-81637000D01*
X158925000Y-81641000D01*
X158930000Y-81645000D01*
X158934000Y-81650000D01*
X158938000Y-81654000D01*
X158942000Y-81659000D01*
X158946000Y-81665000D01*
X158949000Y-81670000D01*
X158952000Y-81676000D01*
X158955000Y-81681000D01*
X158957000Y-81687000D01*
X158959000Y-81693000D01*
X158961000Y-81699000D01*
X158962000Y-81705000D01*
X158964000Y-81711000D01*
X158964000Y-81717000D01*
X158965000Y-81724000D01*
X158965000Y-81730000D01*
X158965000Y-81870000D01*
X158965000Y-81876000D01*
X158964000Y-81883000D01*
X158964000Y-81889000D01*
X158962000Y-81895000D01*
X158961000Y-81901000D01*
X158959000Y-81907000D01*
X158957000Y-81913000D01*
X158955000Y-81919000D01*
X158952000Y-81924000D01*
X158949000Y-81930000D01*
X158946000Y-81935000D01*
X158942000Y-81941000D01*
X158938000Y-81946000D01*
X158934000Y-81950000D01*
X158930000Y-81955000D01*
X158925000Y-81959000D01*
X158921000Y-81963000D01*
X158916000Y-81967000D01*
X158910000Y-81971000D01*
X158905000Y-81974000D01*
X158899000Y-81977000D01*
X158894000Y-81980000D01*
X158888000Y-81982000D01*
X158882000Y-81984000D01*
X158876000Y-81986000D01*
X158870000Y-81987000D01*
X158864000Y-81989000D01*
X158858000Y-81989000D01*
X158851000Y-81990000D01*
X158845000Y-81990000D01*
X158335000Y-81990000D01*
X158329000Y-81990000D01*
X158322000Y-81989000D01*
X158316000Y-81989000D01*
X158310000Y-81987000D01*
X158304000Y-81986000D01*
X158298000Y-81984000D01*
X158292000Y-81982000D01*
X158286000Y-81980000D01*
X158281000Y-81977000D01*
X158275000Y-81974000D01*
X158270000Y-81971000D01*
X158264000Y-81967000D01*
X158259000Y-81963000D01*
X158255000Y-81959000D01*
X158250000Y-81955000D01*
X158246000Y-81950000D01*
X158242000Y-81946000D01*
X158238000Y-81941000D01*
X158234000Y-81935000D01*
X158231000Y-81930000D01*
X158228000Y-81924000D01*
X158225000Y-81919000D01*
X158223000Y-81913000D01*
X158221000Y-81907000D01*
X158219000Y-81901000D01*
X158218000Y-81895000D01*
X158216000Y-81889000D01*
X158216000Y-81883000D01*
X158215000Y-81876000D01*
X158215000Y-81870000D01*
X158215000Y-81730000D01*
X158215000Y-81724000D01*
X158216000Y-81717000D01*
X158216000Y-81711000D01*
X158218000Y-81705000D01*
X158219000Y-81699000D01*
X158221000Y-81693000D01*
X158223000Y-81687000D01*
X158225000Y-81681000D01*
X158228000Y-81676000D01*
X158231000Y-81670000D01*
X158234000Y-81665000D01*
X158238000Y-81659000D01*
X158242000Y-81654000D01*
X158246000Y-81650000D01*
X158250000Y-81645000D01*
X158255000Y-81641000D01*
X158259000Y-81637000D01*
X158264000Y-81633000D01*
X158270000Y-81629000D01*
X158275000Y-81626000D01*
X158281000Y-81623000D01*
X158286000Y-81620000D01*
X158292000Y-81618000D01*
X158298000Y-81616000D01*
X158304000Y-81614000D01*
X158310000Y-81613000D01*
X158316000Y-81611000D01*
X158322000Y-81611000D01*
X158329000Y-81610000D01*
X158335000Y-81610000D01*
X158845000Y-81610000D01*
X158851000Y-81610000D01*
X158858000Y-81611000D01*
G36*
X158858000Y-81611000D02*
G01*
X158864000Y-81611000D01*
X158870000Y-81613000D01*
X158876000Y-81614000D01*
X158882000Y-81616000D01*
X158888000Y-81618000D01*
X158894000Y-81620000D01*
X158899000Y-81623000D01*
X158905000Y-81626000D01*
X158910000Y-81629000D01*
X158916000Y-81633000D01*
X158921000Y-81637000D01*
X158925000Y-81641000D01*
X158930000Y-81645000D01*
X158934000Y-81650000D01*
X158938000Y-81654000D01*
X158942000Y-81659000D01*
X158946000Y-81665000D01*
X158949000Y-81670000D01*
X158952000Y-81676000D01*
X158955000Y-81681000D01*
X158957000Y-81687000D01*
X158959000Y-81693000D01*
X158961000Y-81699000D01*
X158962000Y-81705000D01*
X158964000Y-81711000D01*
X158964000Y-81717000D01*
X158965000Y-81724000D01*
X158965000Y-81730000D01*
X158965000Y-81870000D01*
X158965000Y-81876000D01*
X158964000Y-81883000D01*
X158964000Y-81889000D01*
X158962000Y-81895000D01*
X158961000Y-81901000D01*
X158959000Y-81907000D01*
X158957000Y-81913000D01*
X158955000Y-81919000D01*
X158952000Y-81924000D01*
X158949000Y-81930000D01*
X158946000Y-81935000D01*
X158942000Y-81941000D01*
X158938000Y-81946000D01*
X158934000Y-81950000D01*
X158930000Y-81955000D01*
X158925000Y-81959000D01*
X158921000Y-81963000D01*
X158916000Y-81967000D01*
X158910000Y-81971000D01*
X158905000Y-81974000D01*
X158899000Y-81977000D01*
X158894000Y-81980000D01*
X158888000Y-81982000D01*
X158882000Y-81984000D01*
X158876000Y-81986000D01*
X158870000Y-81987000D01*
X158864000Y-81989000D01*
X158858000Y-81989000D01*
X158851000Y-81990000D01*
X158845000Y-81990000D01*
X158335000Y-81990000D01*
X158329000Y-81990000D01*
X158322000Y-81989000D01*
X158316000Y-81989000D01*
X158310000Y-81987000D01*
X158304000Y-81986000D01*
X158298000Y-81984000D01*
X158292000Y-81982000D01*
X158286000Y-81980000D01*
X158281000Y-81977000D01*
X158275000Y-81974000D01*
X158270000Y-81971000D01*
X158264000Y-81967000D01*
X158259000Y-81963000D01*
X158255000Y-81959000D01*
X158250000Y-81955000D01*
X158246000Y-81950000D01*
X158242000Y-81946000D01*
X158238000Y-81941000D01*
X158234000Y-81935000D01*
X158231000Y-81930000D01*
X158228000Y-81924000D01*
X158225000Y-81919000D01*
X158223000Y-81913000D01*
X158221000Y-81907000D01*
X158219000Y-81901000D01*
X158218000Y-81895000D01*
X158216000Y-81889000D01*
X158216000Y-81883000D01*
X158215000Y-81876000D01*
X158215000Y-81870000D01*
X158215000Y-81730000D01*
X158215000Y-81724000D01*
X158216000Y-81717000D01*
X158216000Y-81711000D01*
X158218000Y-81705000D01*
X158219000Y-81699000D01*
X158221000Y-81693000D01*
X158223000Y-81687000D01*
X158225000Y-81681000D01*
X158228000Y-81676000D01*
X158231000Y-81670000D01*
X158234000Y-81665000D01*
X158238000Y-81659000D01*
X158242000Y-81654000D01*
X158246000Y-81650000D01*
X158250000Y-81645000D01*
X158255000Y-81641000D01*
X158259000Y-81637000D01*
X158264000Y-81633000D01*
X158270000Y-81629000D01*
X158275000Y-81626000D01*
X158281000Y-81623000D01*
X158286000Y-81620000D01*
X158292000Y-81618000D01*
X158298000Y-81616000D01*
X158304000Y-81614000D01*
X158310000Y-81613000D01*
X158316000Y-81611000D01*
X158322000Y-81611000D01*
X158329000Y-81610000D01*
X158335000Y-81610000D01*
X158845000Y-81610000D01*
X158851000Y-81610000D01*
X158858000Y-81611000D01*
G37*
X158858000Y-83111000D02*
X158864000Y-83111000D01*
X158870000Y-83113000D01*
X158876000Y-83114000D01*
X158882000Y-83116000D01*
X158888000Y-83118000D01*
X158894000Y-83120000D01*
X158899000Y-83123000D01*
X158905000Y-83126000D01*
X158910000Y-83129000D01*
X158916000Y-83133000D01*
X158921000Y-83137000D01*
X158925000Y-83141000D01*
X158930000Y-83145000D01*
X158934000Y-83150000D01*
X158938000Y-83154000D01*
X158942000Y-83159000D01*
X158946000Y-83165000D01*
X158949000Y-83170000D01*
X158952000Y-83176000D01*
X158955000Y-83181000D01*
X158957000Y-83187000D01*
X158959000Y-83193000D01*
X158961000Y-83199000D01*
X158962000Y-83205000D01*
X158964000Y-83211000D01*
X158964000Y-83217000D01*
X158965000Y-83224000D01*
X158965000Y-83230000D01*
X158965000Y-83370000D01*
X158965000Y-83376000D01*
X158964000Y-83383000D01*
X158964000Y-83389000D01*
X158962000Y-83395000D01*
X158961000Y-83401000D01*
X158959000Y-83407000D01*
X158957000Y-83413000D01*
X158955000Y-83419000D01*
X158952000Y-83424000D01*
X158949000Y-83430000D01*
X158946000Y-83435000D01*
X158942000Y-83441000D01*
X158938000Y-83446000D01*
X158934000Y-83450000D01*
X158930000Y-83455000D01*
X158925000Y-83459000D01*
X158921000Y-83463000D01*
X158916000Y-83467000D01*
X158910000Y-83471000D01*
X158905000Y-83474000D01*
X158899000Y-83477000D01*
X158894000Y-83480000D01*
X158888000Y-83482000D01*
X158882000Y-83484000D01*
X158876000Y-83486000D01*
X158870000Y-83487000D01*
X158864000Y-83489000D01*
X158858000Y-83489000D01*
X158851000Y-83490000D01*
X158845000Y-83490000D01*
X158335000Y-83490000D01*
X158329000Y-83490000D01*
X158322000Y-83489000D01*
X158316000Y-83489000D01*
X158310000Y-83487000D01*
X158304000Y-83486000D01*
X158298000Y-83484000D01*
X158292000Y-83482000D01*
X158286000Y-83480000D01*
X158281000Y-83477000D01*
X158275000Y-83474000D01*
X158270000Y-83471000D01*
X158264000Y-83467000D01*
X158259000Y-83463000D01*
X158255000Y-83459000D01*
X158250000Y-83455000D01*
X158246000Y-83450000D01*
X158242000Y-83446000D01*
X158238000Y-83441000D01*
X158234000Y-83435000D01*
X158231000Y-83430000D01*
X158228000Y-83424000D01*
X158225000Y-83419000D01*
X158223000Y-83413000D01*
X158221000Y-83407000D01*
X158219000Y-83401000D01*
X158218000Y-83395000D01*
X158216000Y-83389000D01*
X158216000Y-83383000D01*
X158215000Y-83376000D01*
X158215000Y-83370000D01*
X158215000Y-83230000D01*
X158215000Y-83224000D01*
X158216000Y-83217000D01*
X158216000Y-83211000D01*
X158218000Y-83205000D01*
X158219000Y-83199000D01*
X158221000Y-83193000D01*
X158223000Y-83187000D01*
X158225000Y-83181000D01*
X158228000Y-83176000D01*
X158231000Y-83170000D01*
X158234000Y-83165000D01*
X158238000Y-83159000D01*
X158242000Y-83154000D01*
X158246000Y-83150000D01*
X158250000Y-83145000D01*
X158255000Y-83141000D01*
X158259000Y-83137000D01*
X158264000Y-83133000D01*
X158270000Y-83129000D01*
X158275000Y-83126000D01*
X158281000Y-83123000D01*
X158286000Y-83120000D01*
X158292000Y-83118000D01*
X158298000Y-83116000D01*
X158304000Y-83114000D01*
X158310000Y-83113000D01*
X158316000Y-83111000D01*
X158322000Y-83111000D01*
X158329000Y-83110000D01*
X158335000Y-83110000D01*
X158845000Y-83110000D01*
X158851000Y-83110000D01*
X158858000Y-83111000D01*
G36*
X158858000Y-83111000D02*
G01*
X158864000Y-83111000D01*
X158870000Y-83113000D01*
X158876000Y-83114000D01*
X158882000Y-83116000D01*
X158888000Y-83118000D01*
X158894000Y-83120000D01*
X158899000Y-83123000D01*
X158905000Y-83126000D01*
X158910000Y-83129000D01*
X158916000Y-83133000D01*
X158921000Y-83137000D01*
X158925000Y-83141000D01*
X158930000Y-83145000D01*
X158934000Y-83150000D01*
X158938000Y-83154000D01*
X158942000Y-83159000D01*
X158946000Y-83165000D01*
X158949000Y-83170000D01*
X158952000Y-83176000D01*
X158955000Y-83181000D01*
X158957000Y-83187000D01*
X158959000Y-83193000D01*
X158961000Y-83199000D01*
X158962000Y-83205000D01*
X158964000Y-83211000D01*
X158964000Y-83217000D01*
X158965000Y-83224000D01*
X158965000Y-83230000D01*
X158965000Y-83370000D01*
X158965000Y-83376000D01*
X158964000Y-83383000D01*
X158964000Y-83389000D01*
X158962000Y-83395000D01*
X158961000Y-83401000D01*
X158959000Y-83407000D01*
X158957000Y-83413000D01*
X158955000Y-83419000D01*
X158952000Y-83424000D01*
X158949000Y-83430000D01*
X158946000Y-83435000D01*
X158942000Y-83441000D01*
X158938000Y-83446000D01*
X158934000Y-83450000D01*
X158930000Y-83455000D01*
X158925000Y-83459000D01*
X158921000Y-83463000D01*
X158916000Y-83467000D01*
X158910000Y-83471000D01*
X158905000Y-83474000D01*
X158899000Y-83477000D01*
X158894000Y-83480000D01*
X158888000Y-83482000D01*
X158882000Y-83484000D01*
X158876000Y-83486000D01*
X158870000Y-83487000D01*
X158864000Y-83489000D01*
X158858000Y-83489000D01*
X158851000Y-83490000D01*
X158845000Y-83490000D01*
X158335000Y-83490000D01*
X158329000Y-83490000D01*
X158322000Y-83489000D01*
X158316000Y-83489000D01*
X158310000Y-83487000D01*
X158304000Y-83486000D01*
X158298000Y-83484000D01*
X158292000Y-83482000D01*
X158286000Y-83480000D01*
X158281000Y-83477000D01*
X158275000Y-83474000D01*
X158270000Y-83471000D01*
X158264000Y-83467000D01*
X158259000Y-83463000D01*
X158255000Y-83459000D01*
X158250000Y-83455000D01*
X158246000Y-83450000D01*
X158242000Y-83446000D01*
X158238000Y-83441000D01*
X158234000Y-83435000D01*
X158231000Y-83430000D01*
X158228000Y-83424000D01*
X158225000Y-83419000D01*
X158223000Y-83413000D01*
X158221000Y-83407000D01*
X158219000Y-83401000D01*
X158218000Y-83395000D01*
X158216000Y-83389000D01*
X158216000Y-83383000D01*
X158215000Y-83376000D01*
X158215000Y-83370000D01*
X158215000Y-83230000D01*
X158215000Y-83224000D01*
X158216000Y-83217000D01*
X158216000Y-83211000D01*
X158218000Y-83205000D01*
X158219000Y-83199000D01*
X158221000Y-83193000D01*
X158223000Y-83187000D01*
X158225000Y-83181000D01*
X158228000Y-83176000D01*
X158231000Y-83170000D01*
X158234000Y-83165000D01*
X158238000Y-83159000D01*
X158242000Y-83154000D01*
X158246000Y-83150000D01*
X158250000Y-83145000D01*
X158255000Y-83141000D01*
X158259000Y-83137000D01*
X158264000Y-83133000D01*
X158270000Y-83129000D01*
X158275000Y-83126000D01*
X158281000Y-83123000D01*
X158286000Y-83120000D01*
X158292000Y-83118000D01*
X158298000Y-83116000D01*
X158304000Y-83114000D01*
X158310000Y-83113000D01*
X158316000Y-83111000D01*
X158322000Y-83111000D01*
X158329000Y-83110000D01*
X158335000Y-83110000D01*
X158845000Y-83110000D01*
X158851000Y-83110000D01*
X158858000Y-83111000D01*
G37*
X158858000Y-80611000D02*
X158864000Y-80611000D01*
X158870000Y-80613000D01*
X158876000Y-80614000D01*
X158882000Y-80616000D01*
X158888000Y-80618000D01*
X158894000Y-80620000D01*
X158899000Y-80623000D01*
X158905000Y-80626000D01*
X158910000Y-80629000D01*
X158916000Y-80633000D01*
X158921000Y-80637000D01*
X158925000Y-80641000D01*
X158930000Y-80645000D01*
X158934000Y-80650000D01*
X158938000Y-80654000D01*
X158942000Y-80659000D01*
X158946000Y-80665000D01*
X158949000Y-80670000D01*
X158952000Y-80676000D01*
X158955000Y-80681000D01*
X158957000Y-80687000D01*
X158959000Y-80693000D01*
X158961000Y-80699000D01*
X158962000Y-80705000D01*
X158964000Y-80711000D01*
X158964000Y-80717000D01*
X158965000Y-80724000D01*
X158965000Y-80730000D01*
X158965000Y-80870000D01*
X158965000Y-80876000D01*
X158964000Y-80883000D01*
X158964000Y-80889000D01*
X158962000Y-80895000D01*
X158961000Y-80901000D01*
X158959000Y-80907000D01*
X158957000Y-80913000D01*
X158955000Y-80919000D01*
X158952000Y-80924000D01*
X158949000Y-80930000D01*
X158946000Y-80935000D01*
X158942000Y-80941000D01*
X158938000Y-80946000D01*
X158934000Y-80950000D01*
X158930000Y-80955000D01*
X158925000Y-80959000D01*
X158921000Y-80963000D01*
X158916000Y-80967000D01*
X158910000Y-80971000D01*
X158905000Y-80974000D01*
X158899000Y-80977000D01*
X158894000Y-80980000D01*
X158888000Y-80982000D01*
X158882000Y-80984000D01*
X158876000Y-80986000D01*
X158870000Y-80987000D01*
X158864000Y-80989000D01*
X158858000Y-80989000D01*
X158851000Y-80990000D01*
X158845000Y-80990000D01*
X158335000Y-80990000D01*
X158329000Y-80990000D01*
X158322000Y-80989000D01*
X158316000Y-80989000D01*
X158310000Y-80987000D01*
X158304000Y-80986000D01*
X158298000Y-80984000D01*
X158292000Y-80982000D01*
X158286000Y-80980000D01*
X158281000Y-80977000D01*
X158275000Y-80974000D01*
X158270000Y-80971000D01*
X158264000Y-80967000D01*
X158259000Y-80963000D01*
X158255000Y-80959000D01*
X158250000Y-80955000D01*
X158246000Y-80950000D01*
X158242000Y-80946000D01*
X158238000Y-80941000D01*
X158234000Y-80935000D01*
X158231000Y-80930000D01*
X158228000Y-80924000D01*
X158225000Y-80919000D01*
X158223000Y-80913000D01*
X158221000Y-80907000D01*
X158219000Y-80901000D01*
X158218000Y-80895000D01*
X158216000Y-80889000D01*
X158216000Y-80883000D01*
X158215000Y-80876000D01*
X158215000Y-80870000D01*
X158215000Y-80730000D01*
X158215000Y-80724000D01*
X158216000Y-80717000D01*
X158216000Y-80711000D01*
X158218000Y-80705000D01*
X158219000Y-80699000D01*
X158221000Y-80693000D01*
X158223000Y-80687000D01*
X158225000Y-80681000D01*
X158228000Y-80676000D01*
X158231000Y-80670000D01*
X158234000Y-80665000D01*
X158238000Y-80659000D01*
X158242000Y-80654000D01*
X158246000Y-80650000D01*
X158250000Y-80645000D01*
X158255000Y-80641000D01*
X158259000Y-80637000D01*
X158264000Y-80633000D01*
X158270000Y-80629000D01*
X158275000Y-80626000D01*
X158281000Y-80623000D01*
X158286000Y-80620000D01*
X158292000Y-80618000D01*
X158298000Y-80616000D01*
X158304000Y-80614000D01*
X158310000Y-80613000D01*
X158316000Y-80611000D01*
X158322000Y-80611000D01*
X158329000Y-80610000D01*
X158335000Y-80610000D01*
X158845000Y-80610000D01*
X158851000Y-80610000D01*
X158858000Y-80611000D01*
G36*
X158858000Y-80611000D02*
G01*
X158864000Y-80611000D01*
X158870000Y-80613000D01*
X158876000Y-80614000D01*
X158882000Y-80616000D01*
X158888000Y-80618000D01*
X158894000Y-80620000D01*
X158899000Y-80623000D01*
X158905000Y-80626000D01*
X158910000Y-80629000D01*
X158916000Y-80633000D01*
X158921000Y-80637000D01*
X158925000Y-80641000D01*
X158930000Y-80645000D01*
X158934000Y-80650000D01*
X158938000Y-80654000D01*
X158942000Y-80659000D01*
X158946000Y-80665000D01*
X158949000Y-80670000D01*
X158952000Y-80676000D01*
X158955000Y-80681000D01*
X158957000Y-80687000D01*
X158959000Y-80693000D01*
X158961000Y-80699000D01*
X158962000Y-80705000D01*
X158964000Y-80711000D01*
X158964000Y-80717000D01*
X158965000Y-80724000D01*
X158965000Y-80730000D01*
X158965000Y-80870000D01*
X158965000Y-80876000D01*
X158964000Y-80883000D01*
X158964000Y-80889000D01*
X158962000Y-80895000D01*
X158961000Y-80901000D01*
X158959000Y-80907000D01*
X158957000Y-80913000D01*
X158955000Y-80919000D01*
X158952000Y-80924000D01*
X158949000Y-80930000D01*
X158946000Y-80935000D01*
X158942000Y-80941000D01*
X158938000Y-80946000D01*
X158934000Y-80950000D01*
X158930000Y-80955000D01*
X158925000Y-80959000D01*
X158921000Y-80963000D01*
X158916000Y-80967000D01*
X158910000Y-80971000D01*
X158905000Y-80974000D01*
X158899000Y-80977000D01*
X158894000Y-80980000D01*
X158888000Y-80982000D01*
X158882000Y-80984000D01*
X158876000Y-80986000D01*
X158870000Y-80987000D01*
X158864000Y-80989000D01*
X158858000Y-80989000D01*
X158851000Y-80990000D01*
X158845000Y-80990000D01*
X158335000Y-80990000D01*
X158329000Y-80990000D01*
X158322000Y-80989000D01*
X158316000Y-80989000D01*
X158310000Y-80987000D01*
X158304000Y-80986000D01*
X158298000Y-80984000D01*
X158292000Y-80982000D01*
X158286000Y-80980000D01*
X158281000Y-80977000D01*
X158275000Y-80974000D01*
X158270000Y-80971000D01*
X158264000Y-80967000D01*
X158259000Y-80963000D01*
X158255000Y-80959000D01*
X158250000Y-80955000D01*
X158246000Y-80950000D01*
X158242000Y-80946000D01*
X158238000Y-80941000D01*
X158234000Y-80935000D01*
X158231000Y-80930000D01*
X158228000Y-80924000D01*
X158225000Y-80919000D01*
X158223000Y-80913000D01*
X158221000Y-80907000D01*
X158219000Y-80901000D01*
X158218000Y-80895000D01*
X158216000Y-80889000D01*
X158216000Y-80883000D01*
X158215000Y-80876000D01*
X158215000Y-80870000D01*
X158215000Y-80730000D01*
X158215000Y-80724000D01*
X158216000Y-80717000D01*
X158216000Y-80711000D01*
X158218000Y-80705000D01*
X158219000Y-80699000D01*
X158221000Y-80693000D01*
X158223000Y-80687000D01*
X158225000Y-80681000D01*
X158228000Y-80676000D01*
X158231000Y-80670000D01*
X158234000Y-80665000D01*
X158238000Y-80659000D01*
X158242000Y-80654000D01*
X158246000Y-80650000D01*
X158250000Y-80645000D01*
X158255000Y-80641000D01*
X158259000Y-80637000D01*
X158264000Y-80633000D01*
X158270000Y-80629000D01*
X158275000Y-80626000D01*
X158281000Y-80623000D01*
X158286000Y-80620000D01*
X158292000Y-80618000D01*
X158298000Y-80616000D01*
X158304000Y-80614000D01*
X158310000Y-80613000D01*
X158316000Y-80611000D01*
X158322000Y-80611000D01*
X158329000Y-80610000D01*
X158335000Y-80610000D01*
X158845000Y-80610000D01*
X158851000Y-80610000D01*
X158858000Y-80611000D01*
G37*
X158858000Y-81111000D02*
X158864000Y-81111000D01*
X158870000Y-81113000D01*
X158876000Y-81114000D01*
X158882000Y-81116000D01*
X158888000Y-81118000D01*
X158894000Y-81120000D01*
X158899000Y-81123000D01*
X158905000Y-81126000D01*
X158910000Y-81129000D01*
X158916000Y-81133000D01*
X158921000Y-81137000D01*
X158925000Y-81141000D01*
X158930000Y-81145000D01*
X158934000Y-81150000D01*
X158938000Y-81154000D01*
X158942000Y-81159000D01*
X158946000Y-81165000D01*
X158949000Y-81170000D01*
X158952000Y-81176000D01*
X158955000Y-81181000D01*
X158957000Y-81187000D01*
X158959000Y-81193000D01*
X158961000Y-81199000D01*
X158962000Y-81205000D01*
X158964000Y-81211000D01*
X158964000Y-81217000D01*
X158965000Y-81224000D01*
X158965000Y-81230000D01*
X158965000Y-81370000D01*
X158965000Y-81376000D01*
X158964000Y-81383000D01*
X158964000Y-81389000D01*
X158962000Y-81395000D01*
X158961000Y-81401000D01*
X158959000Y-81407000D01*
X158957000Y-81413000D01*
X158955000Y-81419000D01*
X158952000Y-81424000D01*
X158949000Y-81430000D01*
X158946000Y-81435000D01*
X158942000Y-81441000D01*
X158938000Y-81446000D01*
X158934000Y-81450000D01*
X158930000Y-81455000D01*
X158925000Y-81459000D01*
X158921000Y-81463000D01*
X158916000Y-81467000D01*
X158910000Y-81471000D01*
X158905000Y-81474000D01*
X158899000Y-81477000D01*
X158894000Y-81480000D01*
X158888000Y-81482000D01*
X158882000Y-81484000D01*
X158876000Y-81486000D01*
X158870000Y-81487000D01*
X158864000Y-81489000D01*
X158858000Y-81489000D01*
X158851000Y-81490000D01*
X158845000Y-81490000D01*
X158335000Y-81490000D01*
X158329000Y-81490000D01*
X158322000Y-81489000D01*
X158316000Y-81489000D01*
X158310000Y-81487000D01*
X158304000Y-81486000D01*
X158298000Y-81484000D01*
X158292000Y-81482000D01*
X158286000Y-81480000D01*
X158281000Y-81477000D01*
X158275000Y-81474000D01*
X158270000Y-81471000D01*
X158264000Y-81467000D01*
X158259000Y-81463000D01*
X158255000Y-81459000D01*
X158250000Y-81455000D01*
X158246000Y-81450000D01*
X158242000Y-81446000D01*
X158238000Y-81441000D01*
X158234000Y-81435000D01*
X158231000Y-81430000D01*
X158228000Y-81424000D01*
X158225000Y-81419000D01*
X158223000Y-81413000D01*
X158221000Y-81407000D01*
X158219000Y-81401000D01*
X158218000Y-81395000D01*
X158216000Y-81389000D01*
X158216000Y-81383000D01*
X158215000Y-81376000D01*
X158215000Y-81370000D01*
X158215000Y-81230000D01*
X158215000Y-81224000D01*
X158216000Y-81217000D01*
X158216000Y-81211000D01*
X158218000Y-81205000D01*
X158219000Y-81199000D01*
X158221000Y-81193000D01*
X158223000Y-81187000D01*
X158225000Y-81181000D01*
X158228000Y-81176000D01*
X158231000Y-81170000D01*
X158234000Y-81165000D01*
X158238000Y-81159000D01*
X158242000Y-81154000D01*
X158246000Y-81150000D01*
X158250000Y-81145000D01*
X158255000Y-81141000D01*
X158259000Y-81137000D01*
X158264000Y-81133000D01*
X158270000Y-81129000D01*
X158275000Y-81126000D01*
X158281000Y-81123000D01*
X158286000Y-81120000D01*
X158292000Y-81118000D01*
X158298000Y-81116000D01*
X158304000Y-81114000D01*
X158310000Y-81113000D01*
X158316000Y-81111000D01*
X158322000Y-81111000D01*
X158329000Y-81110000D01*
X158335000Y-81110000D01*
X158845000Y-81110000D01*
X158851000Y-81110000D01*
X158858000Y-81111000D01*
G36*
X158858000Y-81111000D02*
G01*
X158864000Y-81111000D01*
X158870000Y-81113000D01*
X158876000Y-81114000D01*
X158882000Y-81116000D01*
X158888000Y-81118000D01*
X158894000Y-81120000D01*
X158899000Y-81123000D01*
X158905000Y-81126000D01*
X158910000Y-81129000D01*
X158916000Y-81133000D01*
X158921000Y-81137000D01*
X158925000Y-81141000D01*
X158930000Y-81145000D01*
X158934000Y-81150000D01*
X158938000Y-81154000D01*
X158942000Y-81159000D01*
X158946000Y-81165000D01*
X158949000Y-81170000D01*
X158952000Y-81176000D01*
X158955000Y-81181000D01*
X158957000Y-81187000D01*
X158959000Y-81193000D01*
X158961000Y-81199000D01*
X158962000Y-81205000D01*
X158964000Y-81211000D01*
X158964000Y-81217000D01*
X158965000Y-81224000D01*
X158965000Y-81230000D01*
X158965000Y-81370000D01*
X158965000Y-81376000D01*
X158964000Y-81383000D01*
X158964000Y-81389000D01*
X158962000Y-81395000D01*
X158961000Y-81401000D01*
X158959000Y-81407000D01*
X158957000Y-81413000D01*
X158955000Y-81419000D01*
X158952000Y-81424000D01*
X158949000Y-81430000D01*
X158946000Y-81435000D01*
X158942000Y-81441000D01*
X158938000Y-81446000D01*
X158934000Y-81450000D01*
X158930000Y-81455000D01*
X158925000Y-81459000D01*
X158921000Y-81463000D01*
X158916000Y-81467000D01*
X158910000Y-81471000D01*
X158905000Y-81474000D01*
X158899000Y-81477000D01*
X158894000Y-81480000D01*
X158888000Y-81482000D01*
X158882000Y-81484000D01*
X158876000Y-81486000D01*
X158870000Y-81487000D01*
X158864000Y-81489000D01*
X158858000Y-81489000D01*
X158851000Y-81490000D01*
X158845000Y-81490000D01*
X158335000Y-81490000D01*
X158329000Y-81490000D01*
X158322000Y-81489000D01*
X158316000Y-81489000D01*
X158310000Y-81487000D01*
X158304000Y-81486000D01*
X158298000Y-81484000D01*
X158292000Y-81482000D01*
X158286000Y-81480000D01*
X158281000Y-81477000D01*
X158275000Y-81474000D01*
X158270000Y-81471000D01*
X158264000Y-81467000D01*
X158259000Y-81463000D01*
X158255000Y-81459000D01*
X158250000Y-81455000D01*
X158246000Y-81450000D01*
X158242000Y-81446000D01*
X158238000Y-81441000D01*
X158234000Y-81435000D01*
X158231000Y-81430000D01*
X158228000Y-81424000D01*
X158225000Y-81419000D01*
X158223000Y-81413000D01*
X158221000Y-81407000D01*
X158219000Y-81401000D01*
X158218000Y-81395000D01*
X158216000Y-81389000D01*
X158216000Y-81383000D01*
X158215000Y-81376000D01*
X158215000Y-81370000D01*
X158215000Y-81230000D01*
X158215000Y-81224000D01*
X158216000Y-81217000D01*
X158216000Y-81211000D01*
X158218000Y-81205000D01*
X158219000Y-81199000D01*
X158221000Y-81193000D01*
X158223000Y-81187000D01*
X158225000Y-81181000D01*
X158228000Y-81176000D01*
X158231000Y-81170000D01*
X158234000Y-81165000D01*
X158238000Y-81159000D01*
X158242000Y-81154000D01*
X158246000Y-81150000D01*
X158250000Y-81145000D01*
X158255000Y-81141000D01*
X158259000Y-81137000D01*
X158264000Y-81133000D01*
X158270000Y-81129000D01*
X158275000Y-81126000D01*
X158281000Y-81123000D01*
X158286000Y-81120000D01*
X158292000Y-81118000D01*
X158298000Y-81116000D01*
X158304000Y-81114000D01*
X158310000Y-81113000D01*
X158316000Y-81111000D01*
X158322000Y-81111000D01*
X158329000Y-81110000D01*
X158335000Y-81110000D01*
X158845000Y-81110000D01*
X158851000Y-81110000D01*
X158858000Y-81111000D01*
G37*
X158858000Y-82111000D02*
X158864000Y-82111000D01*
X158870000Y-82113000D01*
X158876000Y-82114000D01*
X158882000Y-82116000D01*
X158888000Y-82118000D01*
X158894000Y-82120000D01*
X158899000Y-82123000D01*
X158905000Y-82126000D01*
X158910000Y-82129000D01*
X158916000Y-82133000D01*
X158921000Y-82137000D01*
X158925000Y-82141000D01*
X158930000Y-82145000D01*
X158934000Y-82150000D01*
X158938000Y-82154000D01*
X158942000Y-82159000D01*
X158946000Y-82165000D01*
X158949000Y-82170000D01*
X158952000Y-82176000D01*
X158955000Y-82181000D01*
X158957000Y-82187000D01*
X158959000Y-82193000D01*
X158961000Y-82199000D01*
X158962000Y-82205000D01*
X158964000Y-82211000D01*
X158964000Y-82217000D01*
X158965000Y-82224000D01*
X158965000Y-82230000D01*
X158965000Y-82370000D01*
X158965000Y-82376000D01*
X158964000Y-82383000D01*
X158964000Y-82389000D01*
X158962000Y-82395000D01*
X158961000Y-82401000D01*
X158959000Y-82407000D01*
X158957000Y-82413000D01*
X158955000Y-82419000D01*
X158952000Y-82424000D01*
X158949000Y-82430000D01*
X158946000Y-82435000D01*
X158942000Y-82441000D01*
X158938000Y-82446000D01*
X158934000Y-82450000D01*
X158930000Y-82455000D01*
X158925000Y-82459000D01*
X158921000Y-82463000D01*
X158916000Y-82467000D01*
X158910000Y-82471000D01*
X158905000Y-82474000D01*
X158899000Y-82477000D01*
X158894000Y-82480000D01*
X158888000Y-82482000D01*
X158882000Y-82484000D01*
X158876000Y-82486000D01*
X158870000Y-82487000D01*
X158864000Y-82489000D01*
X158858000Y-82489000D01*
X158851000Y-82490000D01*
X158845000Y-82490000D01*
X158335000Y-82490000D01*
X158329000Y-82490000D01*
X158322000Y-82489000D01*
X158316000Y-82489000D01*
X158310000Y-82487000D01*
X158304000Y-82486000D01*
X158298000Y-82484000D01*
X158292000Y-82482000D01*
X158286000Y-82480000D01*
X158281000Y-82477000D01*
X158275000Y-82474000D01*
X158270000Y-82471000D01*
X158264000Y-82467000D01*
X158259000Y-82463000D01*
X158255000Y-82459000D01*
X158250000Y-82455000D01*
X158246000Y-82450000D01*
X158242000Y-82446000D01*
X158238000Y-82441000D01*
X158234000Y-82435000D01*
X158231000Y-82430000D01*
X158228000Y-82424000D01*
X158225000Y-82419000D01*
X158223000Y-82413000D01*
X158221000Y-82407000D01*
X158219000Y-82401000D01*
X158218000Y-82395000D01*
X158216000Y-82389000D01*
X158216000Y-82383000D01*
X158215000Y-82376000D01*
X158215000Y-82370000D01*
X158215000Y-82230000D01*
X158215000Y-82224000D01*
X158216000Y-82217000D01*
X158216000Y-82211000D01*
X158218000Y-82205000D01*
X158219000Y-82199000D01*
X158221000Y-82193000D01*
X158223000Y-82187000D01*
X158225000Y-82181000D01*
X158228000Y-82176000D01*
X158231000Y-82170000D01*
X158234000Y-82165000D01*
X158238000Y-82159000D01*
X158242000Y-82154000D01*
X158246000Y-82150000D01*
X158250000Y-82145000D01*
X158255000Y-82141000D01*
X158259000Y-82137000D01*
X158264000Y-82133000D01*
X158270000Y-82129000D01*
X158275000Y-82126000D01*
X158281000Y-82123000D01*
X158286000Y-82120000D01*
X158292000Y-82118000D01*
X158298000Y-82116000D01*
X158304000Y-82114000D01*
X158310000Y-82113000D01*
X158316000Y-82111000D01*
X158322000Y-82111000D01*
X158329000Y-82110000D01*
X158335000Y-82110000D01*
X158845000Y-82110000D01*
X158851000Y-82110000D01*
X158858000Y-82111000D01*
G36*
X158858000Y-82111000D02*
G01*
X158864000Y-82111000D01*
X158870000Y-82113000D01*
X158876000Y-82114000D01*
X158882000Y-82116000D01*
X158888000Y-82118000D01*
X158894000Y-82120000D01*
X158899000Y-82123000D01*
X158905000Y-82126000D01*
X158910000Y-82129000D01*
X158916000Y-82133000D01*
X158921000Y-82137000D01*
X158925000Y-82141000D01*
X158930000Y-82145000D01*
X158934000Y-82150000D01*
X158938000Y-82154000D01*
X158942000Y-82159000D01*
X158946000Y-82165000D01*
X158949000Y-82170000D01*
X158952000Y-82176000D01*
X158955000Y-82181000D01*
X158957000Y-82187000D01*
X158959000Y-82193000D01*
X158961000Y-82199000D01*
X158962000Y-82205000D01*
X158964000Y-82211000D01*
X158964000Y-82217000D01*
X158965000Y-82224000D01*
X158965000Y-82230000D01*
X158965000Y-82370000D01*
X158965000Y-82376000D01*
X158964000Y-82383000D01*
X158964000Y-82389000D01*
X158962000Y-82395000D01*
X158961000Y-82401000D01*
X158959000Y-82407000D01*
X158957000Y-82413000D01*
X158955000Y-82419000D01*
X158952000Y-82424000D01*
X158949000Y-82430000D01*
X158946000Y-82435000D01*
X158942000Y-82441000D01*
X158938000Y-82446000D01*
X158934000Y-82450000D01*
X158930000Y-82455000D01*
X158925000Y-82459000D01*
X158921000Y-82463000D01*
X158916000Y-82467000D01*
X158910000Y-82471000D01*
X158905000Y-82474000D01*
X158899000Y-82477000D01*
X158894000Y-82480000D01*
X158888000Y-82482000D01*
X158882000Y-82484000D01*
X158876000Y-82486000D01*
X158870000Y-82487000D01*
X158864000Y-82489000D01*
X158858000Y-82489000D01*
X158851000Y-82490000D01*
X158845000Y-82490000D01*
X158335000Y-82490000D01*
X158329000Y-82490000D01*
X158322000Y-82489000D01*
X158316000Y-82489000D01*
X158310000Y-82487000D01*
X158304000Y-82486000D01*
X158298000Y-82484000D01*
X158292000Y-82482000D01*
X158286000Y-82480000D01*
X158281000Y-82477000D01*
X158275000Y-82474000D01*
X158270000Y-82471000D01*
X158264000Y-82467000D01*
X158259000Y-82463000D01*
X158255000Y-82459000D01*
X158250000Y-82455000D01*
X158246000Y-82450000D01*
X158242000Y-82446000D01*
X158238000Y-82441000D01*
X158234000Y-82435000D01*
X158231000Y-82430000D01*
X158228000Y-82424000D01*
X158225000Y-82419000D01*
X158223000Y-82413000D01*
X158221000Y-82407000D01*
X158219000Y-82401000D01*
X158218000Y-82395000D01*
X158216000Y-82389000D01*
X158216000Y-82383000D01*
X158215000Y-82376000D01*
X158215000Y-82370000D01*
X158215000Y-82230000D01*
X158215000Y-82224000D01*
X158216000Y-82217000D01*
X158216000Y-82211000D01*
X158218000Y-82205000D01*
X158219000Y-82199000D01*
X158221000Y-82193000D01*
X158223000Y-82187000D01*
X158225000Y-82181000D01*
X158228000Y-82176000D01*
X158231000Y-82170000D01*
X158234000Y-82165000D01*
X158238000Y-82159000D01*
X158242000Y-82154000D01*
X158246000Y-82150000D01*
X158250000Y-82145000D01*
X158255000Y-82141000D01*
X158259000Y-82137000D01*
X158264000Y-82133000D01*
X158270000Y-82129000D01*
X158275000Y-82126000D01*
X158281000Y-82123000D01*
X158286000Y-82120000D01*
X158292000Y-82118000D01*
X158298000Y-82116000D01*
X158304000Y-82114000D01*
X158310000Y-82113000D01*
X158316000Y-82111000D01*
X158322000Y-82111000D01*
X158329000Y-82110000D01*
X158335000Y-82110000D01*
X158845000Y-82110000D01*
X158851000Y-82110000D01*
X158858000Y-82111000D01*
G37*
X158858000Y-82611000D02*
X158864000Y-82611000D01*
X158870000Y-82613000D01*
X158876000Y-82614000D01*
X158882000Y-82616000D01*
X158888000Y-82618000D01*
X158894000Y-82620000D01*
X158899000Y-82623000D01*
X158905000Y-82626000D01*
X158910000Y-82629000D01*
X158916000Y-82633000D01*
X158921000Y-82637000D01*
X158925000Y-82641000D01*
X158930000Y-82645000D01*
X158934000Y-82650000D01*
X158938000Y-82654000D01*
X158942000Y-82659000D01*
X158946000Y-82665000D01*
X158949000Y-82670000D01*
X158952000Y-82676000D01*
X158955000Y-82681000D01*
X158957000Y-82687000D01*
X158959000Y-82693000D01*
X158961000Y-82699000D01*
X158962000Y-82705000D01*
X158964000Y-82711000D01*
X158964000Y-82717000D01*
X158965000Y-82724000D01*
X158965000Y-82730000D01*
X158965000Y-82870000D01*
X158965000Y-82876000D01*
X158964000Y-82883000D01*
X158964000Y-82889000D01*
X158962000Y-82895000D01*
X158961000Y-82901000D01*
X158959000Y-82907000D01*
X158957000Y-82913000D01*
X158955000Y-82919000D01*
X158952000Y-82924000D01*
X158949000Y-82930000D01*
X158946000Y-82935000D01*
X158942000Y-82941000D01*
X158938000Y-82946000D01*
X158934000Y-82950000D01*
X158930000Y-82955000D01*
X158925000Y-82959000D01*
X158921000Y-82963000D01*
X158916000Y-82967000D01*
X158910000Y-82971000D01*
X158905000Y-82974000D01*
X158899000Y-82977000D01*
X158894000Y-82980000D01*
X158888000Y-82982000D01*
X158882000Y-82984000D01*
X158876000Y-82986000D01*
X158870000Y-82987000D01*
X158864000Y-82989000D01*
X158858000Y-82989000D01*
X158851000Y-82990000D01*
X158845000Y-82990000D01*
X158335000Y-82990000D01*
X158329000Y-82990000D01*
X158322000Y-82989000D01*
X158316000Y-82989000D01*
X158310000Y-82987000D01*
X158304000Y-82986000D01*
X158298000Y-82984000D01*
X158292000Y-82982000D01*
X158286000Y-82980000D01*
X158281000Y-82977000D01*
X158275000Y-82974000D01*
X158270000Y-82971000D01*
X158264000Y-82967000D01*
X158259000Y-82963000D01*
X158255000Y-82959000D01*
X158250000Y-82955000D01*
X158246000Y-82950000D01*
X158242000Y-82946000D01*
X158238000Y-82941000D01*
X158234000Y-82935000D01*
X158231000Y-82930000D01*
X158228000Y-82924000D01*
X158225000Y-82919000D01*
X158223000Y-82913000D01*
X158221000Y-82907000D01*
X158219000Y-82901000D01*
X158218000Y-82895000D01*
X158216000Y-82889000D01*
X158216000Y-82883000D01*
X158215000Y-82876000D01*
X158215000Y-82870000D01*
X158215000Y-82730000D01*
X158215000Y-82724000D01*
X158216000Y-82717000D01*
X158216000Y-82711000D01*
X158218000Y-82705000D01*
X158219000Y-82699000D01*
X158221000Y-82693000D01*
X158223000Y-82687000D01*
X158225000Y-82681000D01*
X158228000Y-82676000D01*
X158231000Y-82670000D01*
X158234000Y-82665000D01*
X158238000Y-82659000D01*
X158242000Y-82654000D01*
X158246000Y-82650000D01*
X158250000Y-82645000D01*
X158255000Y-82641000D01*
X158259000Y-82637000D01*
X158264000Y-82633000D01*
X158270000Y-82629000D01*
X158275000Y-82626000D01*
X158281000Y-82623000D01*
X158286000Y-82620000D01*
X158292000Y-82618000D01*
X158298000Y-82616000D01*
X158304000Y-82614000D01*
X158310000Y-82613000D01*
X158316000Y-82611000D01*
X158322000Y-82611000D01*
X158329000Y-82610000D01*
X158335000Y-82610000D01*
X158845000Y-82610000D01*
X158851000Y-82610000D01*
X158858000Y-82611000D01*
G36*
X158858000Y-82611000D02*
G01*
X158864000Y-82611000D01*
X158870000Y-82613000D01*
X158876000Y-82614000D01*
X158882000Y-82616000D01*
X158888000Y-82618000D01*
X158894000Y-82620000D01*
X158899000Y-82623000D01*
X158905000Y-82626000D01*
X158910000Y-82629000D01*
X158916000Y-82633000D01*
X158921000Y-82637000D01*
X158925000Y-82641000D01*
X158930000Y-82645000D01*
X158934000Y-82650000D01*
X158938000Y-82654000D01*
X158942000Y-82659000D01*
X158946000Y-82665000D01*
X158949000Y-82670000D01*
X158952000Y-82676000D01*
X158955000Y-82681000D01*
X158957000Y-82687000D01*
X158959000Y-82693000D01*
X158961000Y-82699000D01*
X158962000Y-82705000D01*
X158964000Y-82711000D01*
X158964000Y-82717000D01*
X158965000Y-82724000D01*
X158965000Y-82730000D01*
X158965000Y-82870000D01*
X158965000Y-82876000D01*
X158964000Y-82883000D01*
X158964000Y-82889000D01*
X158962000Y-82895000D01*
X158961000Y-82901000D01*
X158959000Y-82907000D01*
X158957000Y-82913000D01*
X158955000Y-82919000D01*
X158952000Y-82924000D01*
X158949000Y-82930000D01*
X158946000Y-82935000D01*
X158942000Y-82941000D01*
X158938000Y-82946000D01*
X158934000Y-82950000D01*
X158930000Y-82955000D01*
X158925000Y-82959000D01*
X158921000Y-82963000D01*
X158916000Y-82967000D01*
X158910000Y-82971000D01*
X158905000Y-82974000D01*
X158899000Y-82977000D01*
X158894000Y-82980000D01*
X158888000Y-82982000D01*
X158882000Y-82984000D01*
X158876000Y-82986000D01*
X158870000Y-82987000D01*
X158864000Y-82989000D01*
X158858000Y-82989000D01*
X158851000Y-82990000D01*
X158845000Y-82990000D01*
X158335000Y-82990000D01*
X158329000Y-82990000D01*
X158322000Y-82989000D01*
X158316000Y-82989000D01*
X158310000Y-82987000D01*
X158304000Y-82986000D01*
X158298000Y-82984000D01*
X158292000Y-82982000D01*
X158286000Y-82980000D01*
X158281000Y-82977000D01*
X158275000Y-82974000D01*
X158270000Y-82971000D01*
X158264000Y-82967000D01*
X158259000Y-82963000D01*
X158255000Y-82959000D01*
X158250000Y-82955000D01*
X158246000Y-82950000D01*
X158242000Y-82946000D01*
X158238000Y-82941000D01*
X158234000Y-82935000D01*
X158231000Y-82930000D01*
X158228000Y-82924000D01*
X158225000Y-82919000D01*
X158223000Y-82913000D01*
X158221000Y-82907000D01*
X158219000Y-82901000D01*
X158218000Y-82895000D01*
X158216000Y-82889000D01*
X158216000Y-82883000D01*
X158215000Y-82876000D01*
X158215000Y-82870000D01*
X158215000Y-82730000D01*
X158215000Y-82724000D01*
X158216000Y-82717000D01*
X158216000Y-82711000D01*
X158218000Y-82705000D01*
X158219000Y-82699000D01*
X158221000Y-82693000D01*
X158223000Y-82687000D01*
X158225000Y-82681000D01*
X158228000Y-82676000D01*
X158231000Y-82670000D01*
X158234000Y-82665000D01*
X158238000Y-82659000D01*
X158242000Y-82654000D01*
X158246000Y-82650000D01*
X158250000Y-82645000D01*
X158255000Y-82641000D01*
X158259000Y-82637000D01*
X158264000Y-82633000D01*
X158270000Y-82629000D01*
X158275000Y-82626000D01*
X158281000Y-82623000D01*
X158286000Y-82620000D01*
X158292000Y-82618000D01*
X158298000Y-82616000D01*
X158304000Y-82614000D01*
X158310000Y-82613000D01*
X158316000Y-82611000D01*
X158322000Y-82611000D01*
X158329000Y-82610000D01*
X158335000Y-82610000D01*
X158845000Y-82610000D01*
X158851000Y-82610000D01*
X158858000Y-82611000D01*
G37*
%TD*%
D11*
%TO.C,Rt1*%
X159625000Y-78900000D03*
X161275000Y-78900000D03*
%TD*%
D12*
%TO.C,L1*%
X166100000Y-78100000D03*
X166100000Y-84500000D03*
%TD*%
D13*
%TO.C,Cout1*%
X163200000Y-87750000D03*
X159100000Y-87750000D03*
%TD*%
D11*
%TO.C,Rfbb1*%
X155825000Y-78900000D03*
X157475000Y-78900000D03*
%TD*%
D14*
%TO.C,J1*%
X149200000Y-81375000D03*
D15*
X149200000Y-83915000D03*
%TD*%
D11*
%TO.C,Rfbt1*%
X159825000Y-85000000D03*
X161475000Y-85000000D03*
%TD*%
D14*
%TO.C,J2*%
X172250000Y-83925000D03*
D15*
X172250000Y-81385000D03*
%TD*%
D16*
%TO.C,Cin1*%
X152450000Y-81400000D03*
X152450000Y-82950000D03*
%TD*%
D17*
%TO.C,Cout2*%
X165350000Y-87700000D03*
X169450000Y-87700000D03*
%TD*%
D16*
%TO.C,Cin2*%
X154150000Y-81400000D03*
X154150000Y-82950000D03*
%TD*%
%TO.C,Cboot1*%
X160850000Y-81175000D03*
X160850000Y-82725000D03*
%TD*%
M02*
