%TF.GenerationSoftware,KiCad,Pcbnew,9.0.2*%
%TF.CreationDate,2025-09-11T23:54:02+05:30*%
%TF.ProjectId,DC_BUCK_CONVERTER,44435f42-5543-44b5-9f43-4f4e56455254,rev?*%
%TF.SameCoordinates,Original*%
%TF.FileFunction,Copper,L1,Top*%
%TF.FilePolarity,Positive*%
%FSLAX46Y46*%
G04 Gerber Fmt 4.6, Leading zero omitted, Abs format (unit mm)*
G04 Created by KiCad (PCBNEW 9.0.2) date 2025-09-11 23:54:02*
%MOMM*%
%LPD*%
G01*
G04 APERTURE LIST*
G04 Aperture macros list*
%AMRoundRect*
0 Rectangle with rounded corners*
0 $1 Rounding radius*
0 $2 $3 $4 $5 $6 $7 $8 $9 X,Y pos of 4 corners*
0 Add a 4 corners polygon primitive as box body*
4,1,4,$2,$3,$4,$5,$6,$7,$8,$9,$2,$3,0*
0 Add four circle primitives for the rounded corners*
1,1,$1+$1,$2,$3*
1,1,$1+$1,$4,$5*
1,1,$1+$1,$6,$7*
1,1,$1+$1,$8,$9*
0 Add four rect primitives between the rounded corners*
20,1,$1+$1,$2,$3,$4,$5,0*
20,1,$1+$1,$4,$5,$6,$7,0*
20,1,$1+$1,$6,$7,$8,$9,0*
20,1,$1+$1,$8,$9,$2,$3,0*%
%AMFreePoly0*
4,1,153,0.606581,1.254743,0.608810,1.254000,0.610000,1.254000,0.611581,1.253743,0.613810,1.253000,0.615000,1.253000,0.616581,1.252743,0.619581,1.251743,0.620236,1.251472,0.621920,1.250630,0.624581,1.249743,0.626536,1.248536,0.627964,1.247108,0.629236,1.246472,0.630536,1.245536,0.631964,1.244108,0.633236,1.243472,0.634536,1.242536,0.642536,1.234536,0.643472,1.233236,
0.644108,1.231964,0.645536,1.230536,0.646472,1.229236,0.647108,1.227964,0.648536,1.226536,0.649743,1.224581,0.650630,1.221920,0.651472,1.220236,0.651743,1.219581,0.652743,1.216581,0.653000,1.215000,0.653000,1.213810,0.653743,1.211581,0.654000,1.210000,0.654000,1.208810,0.654743,1.206581,0.655000,1.205000,0.655000,-1.205000,0.654743,-1.206581,0.654000,-1.208810,
0.654000,-1.210000,0.653743,-1.211581,0.653000,-1.213810,0.653000,-1.215000,0.652743,-1.216581,0.651743,-1.219581,0.651472,-1.220236,0.650630,-1.221920,0.649743,-1.224581,0.648536,-1.226536,0.647108,-1.227964,0.646472,-1.229236,0.645536,-1.230536,0.644108,-1.231964,0.643472,-1.233236,0.642536,-1.234536,0.634536,-1.242536,0.633236,-1.243472,0.631964,-1.244108,0.630536,-1.245536,
0.629236,-1.246472,0.627964,-1.247108,0.626536,-1.248536,0.624581,-1.249743,0.621920,-1.250630,0.620236,-1.251472,0.619581,-1.251743,0.616581,-1.252743,0.615000,-1.253000,0.613810,-1.253000,0.611581,-1.253743,0.610000,-1.254000,0.608810,-1.254000,0.606581,-1.254743,0.605000,-1.255000,-0.605000,-1.255000,-0.606581,-1.254743,-0.608810,-1.254000,-0.610000,-1.254000,-0.611581,-1.253743,
-0.613810,-1.253000,-0.615000,-1.253000,-0.616581,-1.252743,-0.619581,-1.251743,-0.620236,-1.251472,-0.621920,-1.250630,-0.624581,-1.249743,-0.626536,-1.248536,-0.627964,-1.247108,-0.629236,-1.246472,-0.630536,-1.245536,-0.631964,-1.244108,-0.633236,-1.243472,-0.634536,-1.242536,-0.642536,-1.234536,-0.643472,-1.233236,-0.644108,-1.231964,-0.645536,-1.230536,-0.646472,-1.229236,-0.647108,-1.227964,
-0.648536,-1.226536,-0.649743,-1.224581,-0.650630,-1.221920,-0.651472,-1.220236,-0.651743,-1.219581,-0.652743,-1.216581,-0.653000,-1.215000,-0.653000,-1.213810,-0.653743,-1.211581,-0.654000,-1.210000,-0.654000,-1.208810,-0.654743,-1.206581,-0.655000,-1.205000,-0.655000,1.205000,-0.654743,1.206581,-0.654000,1.208810,-0.654000,1.210000,-0.653743,1.211581,-0.653000,1.213810,-0.653000,1.215000,
-0.652743,1.216581,-0.651743,1.219581,-0.651472,1.220236,-0.650630,1.221920,-0.649743,1.224581,-0.648536,1.226536,-0.647108,1.227964,-0.646472,1.229236,-0.645536,1.230536,-0.644108,1.231964,-0.643472,1.233236,-0.642536,1.234536,-0.634536,1.242536,-0.633236,1.243472,-0.631964,1.244108,-0.630536,1.245536,-0.629236,1.246472,-0.627964,1.247108,-0.626536,1.248536,-0.624581,1.249743,
-0.621920,1.250630,-0.620236,1.251472,-0.619581,1.251743,-0.616581,1.252743,-0.615000,1.253000,-0.613810,1.253000,-0.611581,1.253743,-0.610000,1.254000,-0.608810,1.254000,-0.606581,1.254743,-0.605000,1.255000,0.605000,1.255000,0.606581,1.254743,0.606581,1.254743,$1*%
G04 Aperture macros list end*
%TA.AperFunction,SMDPad,CuDef*%
%ADD10RoundRect,0.200000X-0.200000X-0.275000X0.200000X-0.275000X0.200000X0.275000X-0.200000X0.275000X0*%
%TD*%
%TA.AperFunction,SMDPad,CuDef*%
%ADD11R,2.200000X1.500000*%
%TD*%
%TA.AperFunction,SMDPad,CuDef*%
%ADD12RoundRect,0.249999X0.450001X1.450001X-0.450001X1.450001X-0.450001X-1.450001X0.450001X-1.450001X0*%
%TD*%
%TA.AperFunction,SMDPad,CuDef*%
%ADD13RoundRect,0.050000X0.260000X0.075000X-0.260000X0.075000X-0.260000X-0.075000X0.260000X-0.075000X0*%
%TD*%
%TA.AperFunction,SMDPad,CuDef*%
%ADD14FreePoly0,180.000000*%
%TD*%
%TA.AperFunction,ComponentPad*%
%ADD15C,0.300000*%
%TD*%
%TA.AperFunction,ComponentPad*%
%ADD16R,1.700000X1.700000*%
%TD*%
%TA.AperFunction,ComponentPad*%
%ADD17C,1.700000*%
%TD*%
%TA.AperFunction,SMDPad,CuDef*%
%ADD18RoundRect,0.225000X-0.250000X0.225000X-0.250000X-0.225000X0.250000X-0.225000X0.250000X0.225000X0*%
%TD*%
%TA.AperFunction,SMDPad,CuDef*%
%ADD19RoundRect,0.249999X-0.450001X-1.450001X0.450001X-1.450001X0.450001X1.450001X-0.450001X1.450001X0*%
%TD*%
%TA.AperFunction,ViaPad*%
%ADD20C,0.600000*%
%TD*%
%TA.AperFunction,Conductor*%
%ADD21C,0.200000*%
%TD*%
%TA.AperFunction,Conductor*%
%ADD22C,0.400000*%
%TD*%
%TA.AperFunction,Conductor*%
%ADD23C,0.300000*%
%TD*%
G04 APERTURE END LIST*
D10*
%TO.P,Rt1,1*%
%TO.N,Net-(U1-RT)*%
X159625000Y-78900000D03*
%TO.P,Rt1,2*%
%TO.N,GND*%
X161275000Y-78900000D03*
%TD*%
D11*
%TO.P,L1,1,1*%
%TO.N,Net-(U1-SW)*%
X166100000Y-78100000D03*
%TO.P,L1,2,2*%
%TO.N,VOUT*%
X166100000Y-84500000D03*
%TD*%
D12*
%TO.P,Cout1,1*%
%TO.N,VOUT*%
X163200000Y-87750000D03*
%TO.P,Cout1,2*%
%TO.N,GND*%
X159100000Y-87750000D03*
%TD*%
D10*
%TO.P,Rfbb1,1*%
%TO.N,Net-(U1-FB)*%
X155825000Y-78900000D03*
%TO.P,Rfbb1,2*%
%TO.N,GND*%
X157475000Y-78900000D03*
%TD*%
D13*
%TO.P,U1,1,SW*%
%TO.N,Net-(U1-SW)*%
X158590000Y-83300000D03*
%TO.P,U1,2,SW__1*%
%TO.N,unconnected-(U1-SW__1-Pad2)*%
X158590000Y-82800000D03*
%TO.P,U1,3,SW__2*%
%TO.N,unconnected-(U1-SW__2-Pad3)*%
X158590000Y-82300000D03*
%TO.P,U1,4,BOOT*%
%TO.N,Net-(U1-BOOT)*%
X158590000Y-81800000D03*
%TO.P,U1,5,PG*%
%TO.N,unconnected-(U1-PG-Pad5)*%
X158590000Y-81300000D03*
%TO.P,U1,6,RT*%
%TO.N,Net-(U1-RT)*%
X158590000Y-80800000D03*
%TO.P,U1,7,FB*%
%TO.N,Net-(U1-FB)*%
X155810000Y-80800000D03*
%TO.P,U1,8,AGND*%
%TO.N,GND*%
X155810000Y-81300000D03*
%TO.P,U1,9,EN*%
%TO.N,VIN*%
X155810000Y-81800000D03*
%TO.P,U1,10,VIN*%
X155810000Y-82300000D03*
%TO.P,U1,11,VIN__1*%
%TO.N,unconnected-(U1-VIN__1-Pad11)*%
X155810000Y-82800000D03*
%TO.P,U1,12,VIN__2*%
%TO.N,unconnected-(U1-VIN__2-Pad12)*%
X155810000Y-83300000D03*
D14*
%TO.P,U1,13,PGND*%
%TO.N,GND*%
X157200000Y-82050000D03*
D15*
%TO.P,U1,14*%
X157200000Y-83050000D03*
%TO.P,U1,15*%
X157200000Y-82050000D03*
%TO.P,U1,16*%
X157200000Y-81050000D03*
%TD*%
D16*
%TO.P,J1,1,Pin_1*%
%TO.N,VIN*%
X149200000Y-81375000D03*
D17*
%TO.P,J1,2,Pin_2*%
%TO.N,GND*%
X149200000Y-83915000D03*
%TD*%
D10*
%TO.P,Rfbt1,1*%
%TO.N,VOUT*%
X159825000Y-85000000D03*
%TO.P,Rfbt1,2*%
%TO.N,Net-(U1-FB)*%
X161475000Y-85000000D03*
%TD*%
D16*
%TO.P,J2,1,Pin_1*%
%TO.N,GND*%
X172250000Y-83925000D03*
D17*
%TO.P,J2,2,Pin_2*%
%TO.N,VOUT*%
X172250000Y-81385000D03*
%TD*%
D18*
%TO.P,Cin1,1*%
%TO.N,VIN*%
X152450000Y-81400000D03*
%TO.P,Cin1,2*%
%TO.N,GND*%
X152450000Y-82950000D03*
%TD*%
D19*
%TO.P,Cout2,1*%
%TO.N,VOUT*%
X165350000Y-87700000D03*
%TO.P,Cout2,2*%
%TO.N,GND*%
X169450000Y-87700000D03*
%TD*%
D18*
%TO.P,Cin2,1*%
%TO.N,VIN*%
X154150000Y-81400000D03*
%TO.P,Cin2,2*%
%TO.N,GND*%
X154150000Y-82950000D03*
%TD*%
%TO.P,Cboot1,1*%
%TO.N,Net-(U1-BOOT)*%
X160850000Y-81175000D03*
%TO.P,Cboot1,2*%
%TO.N,Net-(U1-SW)*%
X160850000Y-82725000D03*
%TD*%
D20*
%TO.N,Net-(U1-FB)*%
X154650000Y-78900000D03*
X161950000Y-83600000D03*
%TD*%
D21*
%TO.N,Net-(U1-SW)*%
X160275000Y-83300000D02*
X160850000Y-82725000D01*
X158590000Y-83300000D02*
X160275000Y-83300000D01*
X160850000Y-82725000D02*
X161475000Y-82725000D01*
D22*
X161475000Y-82725000D02*
X166100000Y-78100000D01*
D21*
%TO.N,Net-(U1-BOOT)*%
X158590000Y-81800000D02*
X160225000Y-81800000D01*
X160225000Y-81800000D02*
X160850000Y-81175000D01*
%TO.N,GND*%
X156524000Y-81374000D02*
X155884000Y-81374000D01*
X155884000Y-81374000D02*
X155810000Y-81300000D01*
X159100000Y-87750000D02*
X157651000Y-86301000D01*
X156749000Y-81599000D02*
X156524000Y-81374000D01*
X157651000Y-82501000D02*
X157518905Y-82368905D01*
X157651000Y-86301000D02*
X157651000Y-82501000D01*
X156749000Y-79626000D02*
X156749000Y-81599000D01*
X157475000Y-78900000D02*
X156749000Y-79626000D01*
%TO.N,VIN*%
X154150000Y-81400000D02*
X154550000Y-81800000D01*
X155810000Y-82300000D02*
X155810000Y-81800000D01*
D22*
X152450000Y-81400000D02*
X154150000Y-81400000D01*
D21*
X154550000Y-81800000D02*
X155810000Y-81800000D01*
D22*
X149200000Y-81375000D02*
X152425000Y-81375000D01*
D21*
X152425000Y-81375000D02*
X152450000Y-81400000D01*
D22*
%TO.N,VOUT*%
X165350000Y-87700000D02*
X165350000Y-85250000D01*
D21*
X165350000Y-85250000D02*
X166100000Y-84500000D01*
X163250000Y-87750000D02*
X163300000Y-87700000D01*
X162575000Y-87750000D02*
X163200000Y-87750000D01*
D22*
X169135000Y-84500000D02*
X172250000Y-81385000D01*
X166100000Y-84500000D02*
X169135000Y-84500000D01*
D23*
X163300000Y-87700000D02*
X165350000Y-87700000D01*
D21*
X163200000Y-87750000D02*
X163250000Y-87750000D01*
D22*
X159825000Y-85000000D02*
X162575000Y-87750000D01*
D21*
%TO.N,Net-(U1-FB)*%
X154650000Y-78900000D02*
X154550000Y-78900000D01*
X155810000Y-80800000D02*
X155810000Y-78915000D01*
D22*
X155825000Y-78900000D02*
X154650000Y-78900000D01*
D21*
X155810000Y-78915000D02*
X155825000Y-78900000D01*
D22*
X161475000Y-85000000D02*
X161475000Y-84075000D01*
X161475000Y-84075000D02*
X161950000Y-83600000D01*
D21*
%TO.N,Net-(U1-RT)*%
X158590000Y-80800000D02*
X159625000Y-79765000D01*
X159625000Y-79765000D02*
X159625000Y-78900000D01*
%TD*%
%TA.AperFunction,Conductor*%
%TO.N,GND*%
G36*
X164442539Y-77320185D02*
G01*
X164488294Y-77372989D01*
X164499500Y-77424500D01*
X164499500Y-78658480D01*
X164479815Y-78725519D01*
X164463181Y-78746161D01*
X162037180Y-81172162D01*
X161975857Y-81205647D01*
X161906165Y-81200663D01*
X161850232Y-81158791D01*
X161825815Y-81093327D01*
X161825499Y-81084481D01*
X161825499Y-80901662D01*
X161825498Y-80901644D01*
X161815349Y-80802292D01*
X161815348Y-80802289D01*
X161792771Y-80734157D01*
X161762003Y-80641303D01*
X161761999Y-80641297D01*
X161761998Y-80641294D01*
X161672970Y-80496959D01*
X161672967Y-80496955D01*
X161553044Y-80377032D01*
X161553040Y-80377029D01*
X161408705Y-80288001D01*
X161408699Y-80287998D01*
X161408697Y-80287997D01*
X161369876Y-80275133D01*
X161247709Y-80234651D01*
X161148346Y-80224500D01*
X160551662Y-80224500D01*
X160551644Y-80224501D01*
X160452292Y-80234650D01*
X160452289Y-80234651D01*
X160291305Y-80287996D01*
X160291293Y-80288002D01*
X160282530Y-80293407D01*
X160277805Y-80294699D01*
X160274259Y-80298081D01*
X160244436Y-80303828D01*
X160215137Y-80311844D01*
X160210461Y-80310376D01*
X160205652Y-80311303D01*
X160177461Y-80300017D01*
X160148475Y-80290918D01*
X160145335Y-80287155D01*
X160140787Y-80285335D01*
X160123169Y-80260595D01*
X160103708Y-80237274D01*
X160103100Y-80232411D01*
X160100259Y-80228421D01*
X160098813Y-80198080D01*
X160095050Y-80167943D01*
X160097103Y-80162183D01*
X160096934Y-80158630D01*
X160110050Y-80125869D01*
X160168575Y-80024501D01*
X160184577Y-79996785D01*
X160225501Y-79844057D01*
X160225501Y-79816518D01*
X160234146Y-79787074D01*
X160240669Y-79757092D01*
X160244423Y-79752076D01*
X160245186Y-79749479D01*
X160261814Y-79728842D01*
X160362675Y-79627981D01*
X160423994Y-79594499D01*
X160493686Y-79599483D01*
X160538034Y-79627984D01*
X160640122Y-79730072D01*
X160785604Y-79818019D01*
X160785603Y-79818019D01*
X160947894Y-79868590D01*
X160947893Y-79868590D01*
X161018408Y-79874998D01*
X161018426Y-79874999D01*
X161525000Y-79874999D01*
X161531581Y-79874999D01*
X161602102Y-79868591D01*
X161602107Y-79868590D01*
X161764396Y-79818018D01*
X161909877Y-79730072D01*
X162030072Y-79609877D01*
X162118019Y-79464395D01*
X162168590Y-79302106D01*
X162175000Y-79231572D01*
X162175000Y-79150000D01*
X161525000Y-79150000D01*
X161525000Y-79874999D01*
X161018426Y-79874999D01*
X161024999Y-79874998D01*
X161025000Y-79874998D01*
X161025000Y-78650000D01*
X161525000Y-78650000D01*
X162174999Y-78650000D01*
X162174999Y-78568417D01*
X162168591Y-78497897D01*
X162168590Y-78497892D01*
X162118018Y-78335603D01*
X162030072Y-78190122D01*
X161909877Y-78069927D01*
X161764395Y-77981980D01*
X161764396Y-77981980D01*
X161602105Y-77931409D01*
X161602106Y-77931409D01*
X161531572Y-77925000D01*
X161525000Y-77925000D01*
X161525000Y-78650000D01*
X161025000Y-78650000D01*
X161025000Y-77925000D01*
X161024999Y-77924999D01*
X161018436Y-77925000D01*
X161018417Y-77925001D01*
X160947897Y-77931408D01*
X160947892Y-77931409D01*
X160785603Y-77981981D01*
X160640122Y-78069927D01*
X160640121Y-78069928D01*
X160538035Y-78172015D01*
X160476712Y-78205500D01*
X160407020Y-78200516D01*
X160362673Y-78172015D01*
X160260188Y-78069530D01*
X160114606Y-77981522D01*
X159952196Y-77930914D01*
X159952194Y-77930913D01*
X159952192Y-77930913D01*
X159902778Y-77926423D01*
X159881616Y-77924500D01*
X159368384Y-77924500D01*
X159349145Y-77926248D01*
X159297807Y-77930913D01*
X159135393Y-77981522D01*
X158989811Y-78069530D01*
X158869530Y-78189811D01*
X158781522Y-78335393D01*
X158730913Y-78497807D01*
X158724500Y-78568386D01*
X158724500Y-79231613D01*
X158730913Y-79302192D01*
X158730913Y-79302194D01*
X158730914Y-79302196D01*
X158781522Y-79464606D01*
X158842272Y-79565099D01*
X158860108Y-79632651D01*
X158838591Y-79699125D01*
X158823836Y-79716928D01*
X158402584Y-80138181D01*
X158341261Y-80171666D01*
X158314903Y-80174500D01*
X158286898Y-80174500D01*
X158223710Y-80182087D01*
X158198434Y-80185123D01*
X158057661Y-80240637D01*
X158057655Y-80240640D01*
X158012762Y-80274684D01*
X158011580Y-80275133D01*
X158010809Y-80276135D01*
X157979008Y-80287512D01*
X157947450Y-80299507D01*
X157945825Y-80299384D01*
X157945023Y-80299672D01*
X157924313Y-80297768D01*
X157909856Y-80296682D01*
X157894523Y-80293130D01*
X157892024Y-80292621D01*
X157891116Y-80292455D01*
X157889034Y-80292030D01*
X157885878Y-80291518D01*
X157885868Y-80291517D01*
X157805008Y-80285000D01*
X157450000Y-80285000D01*
X157450000Y-81087868D01*
X157749077Y-81386945D01*
X157759043Y-81405197D01*
X157773011Y-81420607D01*
X157779446Y-81442562D01*
X157782562Y-81448268D01*
X157783709Y-81454241D01*
X157784176Y-81457048D01*
X157790123Y-81506564D01*
X157794117Y-81516693D01*
X157796271Y-81529614D01*
X157793582Y-81551824D01*
X157795592Y-81574108D01*
X157791398Y-81588389D01*
X157790121Y-81593440D01*
X157784511Y-81640159D01*
X157756973Y-81704373D01*
X157749077Y-81713054D01*
X157450000Y-82012131D01*
X157450000Y-82087868D01*
X157749077Y-82386945D01*
X157759043Y-82405197D01*
X157773011Y-82420607D01*
X157779446Y-82442562D01*
X157782562Y-82448268D01*
X157783709Y-82454241D01*
X157784176Y-82457048D01*
X157790123Y-82506564D01*
X157794117Y-82516693D01*
X157796271Y-82529614D01*
X157793582Y-82551824D01*
X157795592Y-82574108D01*
X157791398Y-82588389D01*
X157790121Y-82593440D01*
X157784511Y-82640159D01*
X157756973Y-82704373D01*
X157749077Y-82713054D01*
X157450000Y-83012131D01*
X157450000Y-83815000D01*
X157805008Y-83815000D01*
X157885866Y-83808482D01*
X157889051Y-83807966D01*
X157891065Y-83807555D01*
X157891552Y-83807456D01*
X157896573Y-83806452D01*
X157896606Y-83806454D01*
X157896966Y-83806389D01*
X157899035Y-83805968D01*
X157908202Y-83803712D01*
X157978003Y-83806805D01*
X158012763Y-83825316D01*
X158057656Y-83859360D01*
X158057657Y-83859360D01*
X158057658Y-83859361D01*
X158198436Y-83914877D01*
X158286898Y-83925500D01*
X158286903Y-83925500D01*
X158893097Y-83925500D01*
X158893102Y-83925500D01*
X158981564Y-83914877D01*
X158996100Y-83909144D01*
X159003082Y-83907817D01*
X159006653Y-83905523D01*
X159041588Y-83900500D01*
X159190032Y-83900500D01*
X159257071Y-83920185D01*
X159302826Y-83972989D01*
X159312770Y-84042147D01*
X159283745Y-84105703D01*
X159254183Y-84130615D01*
X159222846Y-84149559D01*
X159189811Y-84169530D01*
X159069530Y-84289811D01*
X158981522Y-84435393D01*
X158930913Y-84597807D01*
X158924500Y-84668386D01*
X158924500Y-85331613D01*
X158931508Y-85408730D01*
X158930210Y-85408847D01*
X158924601Y-85471419D01*
X158881729Y-85526589D01*
X158815836Y-85549823D01*
X158809220Y-85550000D01*
X158600029Y-85550000D01*
X158600012Y-85550001D01*
X158497303Y-85560494D01*
X158497301Y-85560494D01*
X158330880Y-85615640D01*
X158330869Y-85615645D01*
X158181659Y-85707680D01*
X158181655Y-85707683D01*
X158057683Y-85831655D01*
X158057680Y-85831659D01*
X157965645Y-85980869D01*
X157965640Y-85980880D01*
X157910494Y-86147302D01*
X157900000Y-86250013D01*
X157900000Y-87500000D01*
X160299999Y-87500000D01*
X160299999Y-86765018D01*
X160319684Y-86697979D01*
X160372488Y-86652224D01*
X160441646Y-86642280D01*
X160505202Y-86671305D01*
X160511680Y-86677337D01*
X161963181Y-88128838D01*
X161996666Y-88190161D01*
X161999500Y-88216519D01*
X161999500Y-89250016D01*
X162001461Y-89269205D01*
X162005582Y-89309546D01*
X162005925Y-89312897D01*
X161993156Y-89381590D01*
X161945276Y-89432475D01*
X161882567Y-89449500D01*
X160416930Y-89449500D01*
X160349891Y-89429815D01*
X160304136Y-89377011D01*
X160293572Y-89312897D01*
X160299999Y-89249986D01*
X160300000Y-89249973D01*
X160300000Y-88000000D01*
X157900001Y-88000000D01*
X157900001Y-89249989D01*
X157906428Y-89312899D01*
X157893658Y-89381592D01*
X157845777Y-89432476D01*
X157783070Y-89449500D01*
X149953559Y-89449500D01*
X149886520Y-89429815D01*
X149840765Y-89377011D01*
X149830821Y-89307853D01*
X149843074Y-89269205D01*
X149856414Y-89243022D01*
X149890568Y-89175992D01*
X149963553Y-88951368D01*
X149988929Y-88791150D01*
X150000500Y-88718097D01*
X150000500Y-88481902D01*
X149963553Y-88248631D01*
X149890566Y-88024003D01*
X149783342Y-87813566D01*
X149644517Y-87622490D01*
X149477510Y-87455483D01*
X149286433Y-87316657D01*
X149249499Y-87297838D01*
X149075996Y-87209433D01*
X148851368Y-87136446D01*
X148618097Y-87099500D01*
X148618092Y-87099500D01*
X148381908Y-87099500D01*
X148381903Y-87099500D01*
X148148631Y-87136446D01*
X147924003Y-87209433D01*
X147921944Y-87210287D01*
X147921099Y-87210377D01*
X147919375Y-87210938D01*
X147919257Y-87210575D01*
X147852474Y-87217750D01*
X147789997Y-87186470D01*
X147754349Y-87126379D01*
X147750500Y-87095722D01*
X147750500Y-84560323D01*
X147770185Y-84493284D01*
X147822989Y-84447529D01*
X147892147Y-84437585D01*
X147955703Y-84466610D01*
X147984985Y-84504028D01*
X148045375Y-84622550D01*
X148084728Y-84676716D01*
X148717037Y-84044408D01*
X148734075Y-84107993D01*
X148799901Y-84222007D01*
X148892993Y-84315099D01*
X149007007Y-84380925D01*
X149070590Y-84397962D01*
X148438282Y-85030269D01*
X148438282Y-85030270D01*
X148492449Y-85069624D01*
X148681782Y-85166095D01*
X148883870Y-85231757D01*
X149093754Y-85265000D01*
X149306246Y-85265000D01*
X149516127Y-85231757D01*
X149516130Y-85231757D01*
X149718217Y-85166095D01*
X149907554Y-85069622D01*
X149961716Y-85030270D01*
X149961717Y-85030270D01*
X149329408Y-84397962D01*
X149392993Y-84380925D01*
X149507007Y-84315099D01*
X149600099Y-84222007D01*
X149665925Y-84107993D01*
X149682962Y-84044408D01*
X150315270Y-84676717D01*
X150315270Y-84676716D01*
X150354622Y-84622554D01*
X150451095Y-84433217D01*
X150516757Y-84231130D01*
X150516757Y-84231127D01*
X150550000Y-84021246D01*
X150550000Y-83808753D01*
X150516757Y-83598872D01*
X150516757Y-83598869D01*
X150451095Y-83396782D01*
X150362711Y-83223322D01*
X151475001Y-83223322D01*
X151485144Y-83322607D01*
X151538452Y-83483481D01*
X151538457Y-83483492D01*
X151627424Y-83627728D01*
X151627427Y-83627732D01*
X151747267Y-83747572D01*
X151747271Y-83747575D01*
X151891507Y-83836542D01*
X151891518Y-83836547D01*
X152052393Y-83889855D01*
X152151683Y-83899999D01*
X152700000Y-83899999D01*
X152748308Y-83899999D01*
X152748322Y-83899998D01*
X152847607Y-83889855D01*
X153008481Y-83836547D01*
X153008492Y-83836542D01*
X153152728Y-83747575D01*
X153152732Y-83747572D01*
X153212319Y-83687986D01*
X153273642Y-83654501D01*
X153343334Y-83659485D01*
X153387681Y-83687986D01*
X153447267Y-83747572D01*
X153447271Y-83747575D01*
X153591507Y-83836542D01*
X153591518Y-83836547D01*
X153752393Y-83889855D01*
X153851683Y-83899999D01*
X153899999Y-83899998D01*
X153900000Y-83899998D01*
X153900000Y-83200000D01*
X152700000Y-83200000D01*
X152700000Y-83899999D01*
X152151683Y-83899999D01*
X152199999Y-83899998D01*
X152200000Y-83899998D01*
X152200000Y-83200000D01*
X151475001Y-83200000D01*
X151475001Y-83223322D01*
X150362711Y-83223322D01*
X150354623Y-83207448D01*
X150315270Y-83153282D01*
X150315269Y-83153282D01*
X149682962Y-83785590D01*
X149665925Y-83722007D01*
X149600099Y-83607993D01*
X149507007Y-83514901D01*
X149392993Y-83449075D01*
X149329409Y-83432037D01*
X149999627Y-82761818D01*
X150060950Y-82728333D01*
X150087307Y-82725499D01*
X150097872Y-82725499D01*
X150157483Y-82719091D01*
X150292331Y-82668796D01*
X150407546Y-82582546D01*
X150493796Y-82467331D01*
X150544091Y-82332483D01*
X150550500Y-82272873D01*
X150550500Y-82199500D01*
X150570185Y-82132461D01*
X150622989Y-82086706D01*
X150674500Y-82075500D01*
X151526885Y-82075500D01*
X151593924Y-82095185D01*
X151639679Y-82147989D01*
X151649623Y-82217147D01*
X151629128Y-82264832D01*
X151631218Y-82266121D01*
X151538457Y-82416507D01*
X151538452Y-82416518D01*
X151485144Y-82577393D01*
X151475000Y-82676677D01*
X151475000Y-82700000D01*
X154026000Y-82700000D01*
X154093039Y-82719685D01*
X154138794Y-82772489D01*
X154150000Y-82824000D01*
X154150000Y-82950000D01*
X154276000Y-82950000D01*
X154343039Y-82969685D01*
X154388794Y-83022489D01*
X154400000Y-83074000D01*
X154400000Y-83899999D01*
X154448308Y-83899999D01*
X154448322Y-83899998D01*
X154547607Y-83889855D01*
X154708481Y-83836547D01*
X154708492Y-83836542D01*
X154852727Y-83747576D01*
X154916486Y-83683817D01*
X154977809Y-83650332D01*
X155047501Y-83655316D01*
X155102972Y-83696573D01*
X155157077Y-83767922D01*
X155277656Y-83859360D01*
X155277657Y-83859360D01*
X155277658Y-83859361D01*
X155418436Y-83914877D01*
X155506898Y-83925500D01*
X155506903Y-83925500D01*
X156113097Y-83925500D01*
X156113102Y-83925500D01*
X156201564Y-83914877D01*
X156342342Y-83859361D01*
X156387238Y-83825315D01*
X156388412Y-83824868D01*
X156389183Y-83823868D01*
X156420962Y-83812496D01*
X156452544Y-83800492D01*
X156454168Y-83800614D01*
X156454968Y-83800328D01*
X156475615Y-83802225D01*
X156490135Y-83803316D01*
X156505511Y-83806876D01*
X156507980Y-83807380D01*
X156508932Y-83807554D01*
X156510968Y-83807969D01*
X156514123Y-83808481D01*
X156514131Y-83808482D01*
X156594992Y-83815000D01*
X156950000Y-83815000D01*
X156950000Y-83030109D01*
X157100000Y-83030109D01*
X157100000Y-83069891D01*
X157115224Y-83106645D01*
X157143355Y-83134776D01*
X157180109Y-83150000D01*
X157219891Y-83150000D01*
X157256645Y-83134776D01*
X157284776Y-83106645D01*
X157300000Y-83069891D01*
X157300000Y-83030109D01*
X157284776Y-82993355D01*
X157256645Y-82965224D01*
X157219891Y-82950000D01*
X157180109Y-82950000D01*
X157143355Y-82965224D01*
X157115224Y-82993355D01*
X157100000Y-83030109D01*
X156950000Y-83030109D01*
X156950000Y-83012132D01*
X156650921Y-82713053D01*
X156640954Y-82694801D01*
X156626986Y-82679390D01*
X156620550Y-82657433D01*
X156617436Y-82651730D01*
X156616289Y-82645756D01*
X156615826Y-82642983D01*
X156609877Y-82593436D01*
X156605881Y-82583303D01*
X156603728Y-82570384D01*
X156606195Y-82550000D01*
X156912132Y-82550000D01*
X156950000Y-82587867D01*
X156950000Y-82587866D01*
X157450000Y-82587866D01*
X157487867Y-82550000D01*
X157450000Y-82512133D01*
X157450000Y-82587866D01*
X156950000Y-82587866D01*
X156950000Y-82512132D01*
X156912132Y-82550000D01*
X156606195Y-82550000D01*
X156606415Y-82548183D01*
X156604403Y-82525914D01*
X156608592Y-82511644D01*
X156609875Y-82506571D01*
X156609875Y-82506568D01*
X156609877Y-82506564D01*
X156615487Y-82459840D01*
X156643022Y-82395630D01*
X156650921Y-82386946D01*
X156950000Y-82087867D01*
X156950000Y-82030109D01*
X157100000Y-82030109D01*
X157100000Y-82069891D01*
X157115224Y-82106645D01*
X157143355Y-82134776D01*
X157180109Y-82150000D01*
X157219891Y-82150000D01*
X157256645Y-82134776D01*
X157284776Y-82106645D01*
X157300000Y-82069891D01*
X157300000Y-82030109D01*
X157284776Y-81993355D01*
X157256645Y-81965224D01*
X157219891Y-81950000D01*
X157180109Y-81950000D01*
X157143355Y-81965224D01*
X157115224Y-81993355D01*
X157100000Y-82030109D01*
X156950000Y-82030109D01*
X156950000Y-82012132D01*
X156650922Y-81713054D01*
X156641894Y-81696521D01*
X156628796Y-81682979D01*
X156621260Y-81658733D01*
X156617437Y-81651731D01*
X156617014Y-81649709D01*
X156616065Y-81644969D01*
X156609877Y-81593436D01*
X156601498Y-81572190D01*
X156599326Y-81561335D01*
X156600028Y-81553377D01*
X156599387Y-81550000D01*
X156912132Y-81550000D01*
X156950000Y-81587867D01*
X156950000Y-81587866D01*
X157450000Y-81587866D01*
X157487867Y-81550000D01*
X157450000Y-81512133D01*
X157450000Y-81587866D01*
X156950000Y-81587866D01*
X156950000Y-81512132D01*
X156912132Y-81550000D01*
X156599387Y-81550000D01*
X156596915Y-81536989D01*
X156596916Y-81522438D01*
X156596586Y-81521834D01*
X156596916Y-81517211D01*
X156596918Y-81498632D01*
X156598245Y-81498632D01*
X156599064Y-81487172D01*
X156598176Y-81480991D01*
X156599753Y-81477535D01*
X156601570Y-81452142D01*
X156630071Y-81407794D01*
X156950000Y-81087866D01*
X156950000Y-81030109D01*
X157100000Y-81030109D01*
X157100000Y-81069891D01*
X157115224Y-81106645D01*
X157143355Y-81134776D01*
X157180109Y-81150000D01*
X157219891Y-81150000D01*
X157256645Y-81134776D01*
X157284776Y-81106645D01*
X157300000Y-81069891D01*
X157300000Y-81030109D01*
X157284776Y-80993355D01*
X157256645Y-80965224D01*
X157219891Y-80950000D01*
X157180109Y-80950000D01*
X157143355Y-80965224D01*
X157115224Y-80993355D01*
X157100000Y-81030109D01*
X156950000Y-81030109D01*
X156950000Y-80285000D01*
X156594990Y-80285000D01*
X156544460Y-80289072D01*
X156476056Y-80274836D01*
X156426208Y-80225878D01*
X156410500Y-80165473D01*
X156410500Y-79829773D01*
X156419271Y-79799902D01*
X156426122Y-79769522D01*
X156429276Y-79765828D01*
X156430185Y-79762734D01*
X156447487Y-79741429D01*
X156456111Y-79732934D01*
X156460185Y-79730472D01*
X156563074Y-79627582D01*
X156563340Y-79627321D01*
X156593708Y-79611036D01*
X156623994Y-79594499D01*
X156624482Y-79594533D01*
X156624915Y-79594302D01*
X156659339Y-79597026D01*
X156693686Y-79599483D01*
X156694151Y-79599782D01*
X156694567Y-79599815D01*
X156696554Y-79601326D01*
X156738034Y-79627984D01*
X156840122Y-79730072D01*
X156985604Y-79818019D01*
X156985603Y-79818019D01*
X157147894Y-79868590D01*
X157147893Y-79868590D01*
X157218408Y-79874998D01*
X157218426Y-79874999D01*
X157725000Y-79874999D01*
X157731581Y-79874999D01*
X157802102Y-79868591D01*
X157802107Y-79868590D01*
X157964396Y-79818018D01*
X158109877Y-79730072D01*
X158230072Y-79609877D01*
X158318019Y-79464395D01*
X158368590Y-79302106D01*
X158375000Y-79231572D01*
X158375000Y-79150000D01*
X157725000Y-79150000D01*
X157725000Y-79874999D01*
X157218426Y-79874999D01*
X157224999Y-79874998D01*
X157225000Y-79874998D01*
X157225000Y-78650000D01*
X157725000Y-78650000D01*
X158374999Y-78650000D01*
X158374999Y-78568417D01*
X158368591Y-78497897D01*
X158368590Y-78497892D01*
X158318018Y-78335603D01*
X158230072Y-78190122D01*
X158109877Y-78069927D01*
X157964395Y-77981980D01*
X157964396Y-77981980D01*
X157802105Y-77931409D01*
X157802106Y-77931409D01*
X157731572Y-77925000D01*
X157725000Y-77925000D01*
X157725000Y-78650000D01*
X157225000Y-78650000D01*
X157225000Y-77925000D01*
X157224999Y-77924999D01*
X157218436Y-77925000D01*
X157218417Y-77925001D01*
X157147897Y-77931408D01*
X157147892Y-77931409D01*
X156985603Y-77981981D01*
X156840122Y-78069927D01*
X156840121Y-78069928D01*
X156738035Y-78172015D01*
X156676712Y-78205500D01*
X156607020Y-78200516D01*
X156562673Y-78172015D01*
X156460188Y-78069530D01*
X156314606Y-77981522D01*
X156152196Y-77930914D01*
X156152194Y-77930913D01*
X156152192Y-77930913D01*
X156102778Y-77926423D01*
X156081616Y-77924500D01*
X155568384Y-77924500D01*
X155549145Y-77926248D01*
X155497807Y-77930913D01*
X155335393Y-77981522D01*
X155189813Y-78069529D01*
X155115736Y-78143606D01*
X155054412Y-78177090D01*
X154984721Y-78172105D01*
X154980603Y-78170485D01*
X154883501Y-78130264D01*
X154883489Y-78130261D01*
X154728845Y-78099500D01*
X154728842Y-78099500D01*
X154571158Y-78099500D01*
X154571155Y-78099500D01*
X154416510Y-78130261D01*
X154416498Y-78130264D01*
X154270827Y-78190602D01*
X154270814Y-78190609D01*
X154139711Y-78278210D01*
X154139707Y-78278213D01*
X154028213Y-78389707D01*
X154028210Y-78389711D01*
X153940609Y-78520814D01*
X153940602Y-78520827D01*
X153880264Y-78666498D01*
X153880261Y-78666510D01*
X153849500Y-78821153D01*
X153849500Y-78978846D01*
X153880261Y-79133489D01*
X153880264Y-79133501D01*
X153940602Y-79279172D01*
X153940609Y-79279185D01*
X154028210Y-79410288D01*
X154028213Y-79410292D01*
X154139707Y-79521786D01*
X154139711Y-79521789D01*
X154270814Y-79609390D01*
X154270827Y-79609397D01*
X154416498Y-79669735D01*
X154416503Y-79669737D01*
X154571153Y-79700499D01*
X154571156Y-79700500D01*
X154571158Y-79700500D01*
X154728844Y-79700500D01*
X154728845Y-79700499D01*
X154883497Y-79669737D01*
X154980605Y-79629513D01*
X155000479Y-79627376D01*
X155019209Y-79620391D01*
X155034505Y-79623718D01*
X155050071Y-79622045D01*
X155067947Y-79630993D01*
X155087482Y-79635243D01*
X155109772Y-79651929D01*
X155112550Y-79653320D01*
X155115736Y-79656394D01*
X155173181Y-79713839D01*
X155206666Y-79775162D01*
X155209500Y-79801520D01*
X155209500Y-80230735D01*
X155189815Y-80297774D01*
X155160428Y-80329537D01*
X155157077Y-80332077D01*
X155065638Y-80452658D01*
X155031015Y-80540455D01*
X154988109Y-80595599D01*
X154922201Y-80618791D01*
X154854217Y-80602670D01*
X154850564Y-80600502D01*
X154708705Y-80513001D01*
X154708699Y-80512998D01*
X154708697Y-80512997D01*
X154600448Y-80477127D01*
X154547709Y-80459651D01*
X154448346Y-80449500D01*
X153851662Y-80449500D01*
X153851644Y-80449501D01*
X153752292Y-80459650D01*
X153752289Y-80459651D01*
X153591305Y-80512996D01*
X153591294Y-80513001D01*
X153446959Y-80602029D01*
X153446955Y-80602032D01*
X153387681Y-80661307D01*
X153326358Y-80694792D01*
X153256666Y-80689808D01*
X153212319Y-80661307D01*
X153153044Y-80602032D01*
X153153040Y-80602029D01*
X153008705Y-80513001D01*
X153008699Y-80512998D01*
X153008697Y-80512997D01*
X152900448Y-80477127D01*
X152847709Y-80459651D01*
X152748346Y-80449500D01*
X152151662Y-80449500D01*
X152151644Y-80449501D01*
X152052292Y-80459650D01*
X152052289Y-80459651D01*
X151891305Y-80512996D01*
X151891294Y-80513001D01*
X151746959Y-80602029D01*
X151746955Y-80602032D01*
X151710807Y-80638181D01*
X151649484Y-80671666D01*
X151623126Y-80674500D01*
X150674499Y-80674500D01*
X150607460Y-80654815D01*
X150561705Y-80602011D01*
X150550499Y-80550500D01*
X150550499Y-80477129D01*
X150550498Y-80477123D01*
X150549505Y-80467887D01*
X150544091Y-80417517D01*
X150512224Y-80332078D01*
X150493797Y-80282671D01*
X150493793Y-80282664D01*
X150407547Y-80167455D01*
X150407544Y-80167452D01*
X150292335Y-80081206D01*
X150292328Y-80081202D01*
X150157482Y-80030908D01*
X150157483Y-80030908D01*
X150097883Y-80024501D01*
X150097881Y-80024500D01*
X150097873Y-80024500D01*
X150097864Y-80024500D01*
X148302129Y-80024500D01*
X148302123Y-80024501D01*
X148242516Y-80030908D01*
X148107671Y-80081202D01*
X148107664Y-80081206D01*
X147992455Y-80167452D01*
X147973766Y-80192418D01*
X147917832Y-80234288D01*
X147848140Y-80239272D01*
X147786818Y-80205786D01*
X147753333Y-80144462D01*
X147750500Y-80118106D01*
X147750500Y-79604277D01*
X147770185Y-79537238D01*
X147822989Y-79491483D01*
X147892147Y-79481539D01*
X147921959Y-79489719D01*
X147924002Y-79490565D01*
X147924008Y-79490568D01*
X148067720Y-79537263D01*
X148148631Y-79563553D01*
X148381903Y-79600500D01*
X148381908Y-79600500D01*
X148618097Y-79600500D01*
X148851368Y-79563553D01*
X149075992Y-79490568D01*
X149286433Y-79383343D01*
X149477510Y-79244517D01*
X149644517Y-79077510D01*
X149783343Y-78886433D01*
X149890568Y-78675992D01*
X149963553Y-78451368D01*
X149971043Y-78404076D01*
X150000500Y-78218097D01*
X150000500Y-77981902D01*
X149963553Y-77748631D01*
X149890566Y-77524003D01*
X149868550Y-77480795D01*
X149855654Y-77412126D01*
X149881930Y-77347385D01*
X149939037Y-77307128D01*
X149979035Y-77300500D01*
X164375500Y-77300500D01*
X164442539Y-77320185D01*
G37*
%TD.AperFunction*%
%TA.AperFunction,Conductor*%
G36*
X171784075Y-83732007D02*
G01*
X171750000Y-83859174D01*
X171750000Y-83990826D01*
X171784075Y-84117993D01*
X171816988Y-84175000D01*
X170900000Y-84175000D01*
X170900000Y-84822844D01*
X170906401Y-84882372D01*
X170906403Y-84882379D01*
X170956645Y-85017086D01*
X170956649Y-85017093D01*
X171042809Y-85132187D01*
X171042812Y-85132190D01*
X171157906Y-85218350D01*
X171157913Y-85218354D01*
X171292620Y-85268596D01*
X171292627Y-85268598D01*
X171352155Y-85274999D01*
X171352172Y-85275000D01*
X172000000Y-85275000D01*
X172000000Y-84358012D01*
X172057007Y-84390925D01*
X172184174Y-84425000D01*
X172315826Y-84425000D01*
X172442993Y-84390925D01*
X172500000Y-84358012D01*
X172500000Y-85275000D01*
X173147828Y-85275000D01*
X173147844Y-85274999D01*
X173207372Y-85268598D01*
X173207379Y-85268596D01*
X173342086Y-85218354D01*
X173342089Y-85218352D01*
X173451188Y-85136680D01*
X173516652Y-85112262D01*
X173584925Y-85127113D01*
X173634331Y-85176517D01*
X173649500Y-85235946D01*
X173649500Y-87078890D01*
X173629815Y-87145929D01*
X173577011Y-87191684D01*
X173507853Y-87201628D01*
X173487182Y-87196821D01*
X173301370Y-87136447D01*
X173068097Y-87099500D01*
X173068092Y-87099500D01*
X172831908Y-87099500D01*
X172831903Y-87099500D01*
X172598631Y-87136446D01*
X172374003Y-87209433D01*
X172163566Y-87316657D01*
X172054550Y-87395862D01*
X171972490Y-87455483D01*
X171972488Y-87455485D01*
X171972487Y-87455485D01*
X171805485Y-87622487D01*
X171805485Y-87622488D01*
X171805483Y-87622490D01*
X171745862Y-87704550D01*
X171666657Y-87813566D01*
X171559433Y-88024003D01*
X171486446Y-88248631D01*
X171449500Y-88481902D01*
X171449500Y-88718097D01*
X171486446Y-88951368D01*
X171522224Y-89061478D01*
X171559432Y-89175992D01*
X171559433Y-89175995D01*
X171559434Y-89175996D01*
X171606926Y-89269205D01*
X171619822Y-89337875D01*
X171593545Y-89402615D01*
X171536439Y-89442872D01*
X171496441Y-89449500D01*
X170761434Y-89449500D01*
X170694395Y-89429815D01*
X170648640Y-89377011D01*
X170638924Y-89309440D01*
X170638818Y-89309430D01*
X170638861Y-89309004D01*
X170638696Y-89307853D01*
X170639356Y-89304154D01*
X170649999Y-89199986D01*
X170650000Y-89199973D01*
X170650000Y-87950000D01*
X168250001Y-87950000D01*
X168250001Y-89199986D01*
X168261182Y-89309430D01*
X168259065Y-89309646D01*
X168254599Y-89369231D01*
X168212536Y-89425021D01*
X168146989Y-89449214D01*
X168138566Y-89449500D01*
X166661949Y-89449500D01*
X166594910Y-89429815D01*
X166549155Y-89377011D01*
X166539454Y-89309546D01*
X166539311Y-89309532D01*
X166539369Y-89308957D01*
X166539211Y-89307853D01*
X166539844Y-89304306D01*
X166539997Y-89302802D01*
X166539999Y-89302798D01*
X166550500Y-89200010D01*
X166550500Y-86200013D01*
X168250000Y-86200013D01*
X168250000Y-87450000D01*
X169200000Y-87450000D01*
X169700000Y-87450000D01*
X170649999Y-87450000D01*
X170649999Y-86200028D01*
X170649998Y-86200013D01*
X170639505Y-86097303D01*
X170639505Y-86097301D01*
X170584359Y-85930880D01*
X170584354Y-85930869D01*
X170492319Y-85781659D01*
X170492316Y-85781655D01*
X170368344Y-85657683D01*
X170368340Y-85657680D01*
X170219130Y-85565645D01*
X170219119Y-85565640D01*
X170052697Y-85510494D01*
X169949986Y-85500000D01*
X169700000Y-85500000D01*
X169700000Y-87450000D01*
X169200000Y-87450000D01*
X169200000Y-85500000D01*
X168950029Y-85500000D01*
X168950012Y-85500001D01*
X168847303Y-85510494D01*
X168847301Y-85510494D01*
X168680880Y-85565640D01*
X168680869Y-85565645D01*
X168531659Y-85657680D01*
X168531655Y-85657683D01*
X168407683Y-85781655D01*
X168407680Y-85781659D01*
X168315645Y-85930869D01*
X168315640Y-85930880D01*
X168260494Y-86097302D01*
X168250000Y-86200013D01*
X166550500Y-86200013D01*
X166550500Y-86199990D01*
X166539999Y-86097202D01*
X166484814Y-85930665D01*
X166484811Y-85930661D01*
X166483059Y-85926902D01*
X166482629Y-85924074D01*
X166482542Y-85923810D01*
X166482587Y-85923795D01*
X166472568Y-85857824D01*
X166501089Y-85794041D01*
X166559567Y-85755802D01*
X166595442Y-85750499D01*
X167247871Y-85750499D01*
X167247872Y-85750499D01*
X167307483Y-85744091D01*
X167442331Y-85693796D01*
X167557546Y-85607546D01*
X167643796Y-85492331D01*
X167694091Y-85357483D01*
X167699062Y-85311242D01*
X167725799Y-85246694D01*
X167783191Y-85206846D01*
X167822351Y-85200500D01*
X169203996Y-85200500D01*
X169295040Y-85182389D01*
X169339328Y-85173580D01*
X169451510Y-85127113D01*
X169466807Y-85120777D01*
X169466808Y-85120776D01*
X169466811Y-85120775D01*
X169581543Y-85044114D01*
X170914337Y-83711318D01*
X170975660Y-83677834D01*
X171002018Y-83675000D01*
X171816988Y-83675000D01*
X171784075Y-83732007D01*
G37*
%TD.AperFunction*%
%TA.AperFunction,Conductor*%
G36*
X147955703Y-82538180D02*
G01*
X147973765Y-82557581D01*
X147992453Y-82582544D01*
X147992454Y-82582546D01*
X147992455Y-82582547D01*
X148107664Y-82668793D01*
X148107671Y-82668797D01*
X148128799Y-82676677D01*
X148242517Y-82719091D01*
X148302127Y-82725500D01*
X148312685Y-82725499D01*
X148379723Y-82745179D01*
X148400372Y-82761818D01*
X149070591Y-83432037D01*
X149007007Y-83449075D01*
X148892993Y-83514901D01*
X148799901Y-83607993D01*
X148734075Y-83722007D01*
X148717037Y-83785591D01*
X148084728Y-83153282D01*
X148084727Y-83153282D01*
X148045380Y-83207440D01*
X148045378Y-83207443D01*
X147984984Y-83325972D01*
X147937010Y-83376767D01*
X147869189Y-83393562D01*
X147803054Y-83371024D01*
X147759603Y-83316309D01*
X147750500Y-83269676D01*
X147750500Y-82631893D01*
X147770185Y-82564854D01*
X147822989Y-82519099D01*
X147892147Y-82509155D01*
X147955703Y-82538180D01*
G37*
%TD.AperFunction*%
%TD*%
M02*
